RecursiveMono-CasualA14Italic.ufo
<glyph name="j" format="1">
  <advance width="600.0"/>
  <unicode hex="006A"/>
  <outline>
    <contour>
      <point x="142.96859880789097" y="526.0" type="curve"/>
      <point x="139.69929533094427" y="521.0"/>
      <point x="137.17613115860823" y="515.0"/>
      <point x="135.39910629088286" y="508.0" type="curve" smooth="yes"/>
      <point x="130.87721265426023" y="489.9046391752577"/>
      <point x="135.78328542920266" y="477.5236028214867"/>
      <point x="150.7832854292027" y="477.5236028214867" type="curve" smooth="yes"/>
      <point x="179.7832854292027" y="477.5236028214867"/>
      <point x="282.3218923830961" y="487.5236028214867"/>
      <point x="453.32189238309604" y="487.5236028214867" type="curve"/>
      <point x="462.09531801575156" y="522.4266087900162"/>
      <point x="460.5072057617844" y="536.0"/>
      <point x="442.5072057617844" y="536.0" type="curve" smooth="yes"/>
      <point x="359.5072057617844" y="536.0"/>
      <point x="270.5072057617844" y="536.0"/>
    </contour>
    <contour>
      <point x="356.4378730330982" y="0.0" type="curve" smooth="yes"/>
      <point x="486.66840976782953" y="513.0" type="line" smooth="yes"/>
      <point x="487.93771324477626" y="518.0"/>
      <point x="486.9531560263336" y="522.0"/>
      <point x="484.7147381125016" y="525.0" type="curve" smooth="yes"/>
      <point x="478.74562367561634" y="533.0"/>
      <point x="463.5072057617844" y="536.0"/>
      <point x="447.5072057617844" y="536.0" type="curve" smooth="yes"/>
      <point x="442.5072057617844" y="536.0" type="line"/>
      <point x="305.9301516423196" y="-1.5236028214867063" type="line" smooth="yes"/>
      <point x="275.9745895863774" y="-119.5236028214867"/>
      <point x="249.34780249593055" y="-147.23819858925665"/>
      <point x="174.39717851329357" y="-199.23819858925665" type="curve"/>
      <point x="197.16115029842646" y="-228.38198589256646"/>
      <point x="309.2061855670103" y="-171.89907759088442"/>
    </contour>
    <contour>
      <point x="90.39717851329355" y="-201.52360282148672" type="curve" smooth="yes"/>
      <point x="22.39717851329354" y="-201.52360282148672"/>
      <point x="-10.317417254476382" y="-192.52360282148672"/>
      <point x="-53.69940314704286" y="-160.52360282148672" type="curve"/>
      <point x="-57.69940314704286" y="-160.52360282148672" type="line"/>
      <point x="-59.4612045577862" y="-165.5236028214867"/>
      <point x="-62.746608790016296" y="-174.52360282148672"/>
      <point x="-65.03201302224632" y="-181.5236028214867" type="curve" smooth="yes"/>
      <point x="-68.07921866521974" y="-194.76180141074335"/>
      <point x="-67.3646228974498" y="-205.0"/>
      <point x="-62.650027129679856" y="-212.0" type="curve" smooth="yes"/>
      <point x="-46.982637004883344" y="-233.0"/>
      <point x="4.208355941399901" y="-250.0"/>
      <point x="68.2083559413999" y="-250.0" type="curve" smooth="yes"/>
      <point x="231.73195876288662" y="-250.0"/>
      <point x="310.729788388497" y="-182.37981551817688"/>
      <point x="356.4378730330982" y="0.0" type="curve" smooth="yes"/>
      <point x="357.96147585458493" y="5.238198589256648"/>
      <point x="334.62886597938143" y="16.476397178513295"/>
      <point x="332.62886597938143" y="16.47639717851329" type="curve"/>
      <point x="264.8735756918069" y="-177.5236028214867"/>
      <point x="173.39717851329357" y="-201.52360282148672"/>
    </contour>
    <contour>
      <point x="535.5090961623985" y="666.0" type="curve"/>
      <point x="548.7098523226442" y="718.0" type="line" smooth="yes"/>
      <point x="554.2947876212097" y="740.0"/>
      <point x="539.5949766612712" y="753.0"/>
      <point x="507.5949766612711" y="753.0" type="curve" smooth="yes"/>
      <point x="495.5949766612711" y="753.0"/>
      <point x="485.3411159658817" y="752.0"/>
      <point x="476.8333945751031" y="750.0" type="curve"/>
      <point x="463.63263841485747" y="698.0" type="line" smooth="yes"/>
      <point x="458.0477031162919" y="676.0"/>
      <point x="473.7475140762306" y="663.0"/>
      <point x="504.7475140762306" y="663.0" type="curve" smooth="yes"/>
      <point x="516.7475140762306" y="663.0"/>
      <point x="527.0013747716198" y="664.0"/>
    </contour>
  </outline>
</glyph>
<glyph name="m" format="1">
  <advance width="600.0"/>
  <unicode hex="006D"/>
  <outline>
    <contour>
      <point x="45.15073707562924" y="-6.0" type="curve"/>
      <point x="162.94209973628293" y="458.0" type="line" smooth="yes"/>
      <point x="169.7963385117951" y="485.0"/>
      <point x="173.38127381036054" y="507.0"/>
      <point x="164.42760215503264" y="519.0" type="curve" smooth="yes"/>
      <point x="156.96620910892605" y="529.0"/>
      <point x="146.47393049970475" y="531.0"/>
      <point x="136.47393049970475" y="531.0" type="curve" smooth="yes"/>
      <point x="131.47393049970475" y="531.0"/>
      <point x="125.22006980431539" y="530.0"/>
      <point x="119.71234841353672" y="528.0" type="curve"/>
      <point x="121.85810963802453" y="501.0"/>
      <point x="120.55792059796312" y="488.0"/>
      <point x="108.62646791466413" y="441.0" type="curve" smooth="yes"/>
      <point x="0.9895330695840556" y="17.0" type="line" smooth="yes"/>
      <point x="-3.5799594474240592" y="-1.0"/>
      <point x="13.150737075629237" y="-6.0"/>
      <point x="35.15073707562924" y="-6.0" type="curve" smooth="yes"/>
      <point x="38.15073707562924" y="-6.0"/>
      <point x="42.15073707562924" y="-6.0"/>
    </contour>
    <contour>
      <point x="308.1801410743353" y="536.0" type="curve" smooth="yes"/>
      <point x="251.4655453065654" y="536.0"/>
      <point x="190.5621269669018" y="495.19099294628325"/>
      <point x="127.23168746608789" y="386.0" type="curve" smooth="yes"/>
      <point x="108.39334458493444" y="353.9540953925952"/>
      <point x="111.56646771568096" y="334.71459576776994"/>
      <point x="116.23385784047748" y="310.9527943570266" type="curve"/>
      <point x="200.70591427021162" y="449.95279435702656"/>
      <point x="251.85214500859445" y="488.28540423223006"/>
      <point x="297.8117812933524" y="488.28540423223006" type="curve" smooth="yes"/>
      <point x="334.8117812933524" y="488.28540423223006"/>
      <point x="345.73456738556564" y="468.28540423223006"/>
      <point x="340.29539331148806" y="419.28540423223006" type="curve"/>
      <point x="378.9679827063524" y="419.28540423223006"/>
      <point x="379.32609875203474" y="415.7618014107434"/>
      <point x="383.1351058057515" y="430.4763971785133" type="curve" smooth="yes"/>
      <point x="393.80032555615844" y="475.0"/>
      <point x="377.2619740541607" y="536.0"/>
    </contour>
    <contour>
      <point x="272.67390124796526" y="0.0" type="curve"/>
      <point x="383.1351058057515" y="430.4763971785133" type="line" smooth="yes"/>
      <point x="389.9913185024417" y="459.14155550322994"/>
      <point x="380.41915355398805" y="473.9055887140532"/>
      <point x="353.03852414541507" y="473.9055887140532" type="curve"/>
      <point x="304.4248507867607" y="318.19099294628325"/>
      <point x="277.8733873231281" y="225.85128839904658"/>
      <point x="252.40648817163276" y="125.0" type="curve" smooth="yes"/>
      <point x="251.13718469468606" y="120.0" type="line" smooth="yes"/>
      <point x="224.48181167880537" y="15.0"/>
      <point x="237.91231916179726" y="-3.0"/>
      <point x="257.91231916179726" y="-3.0" type="curve" smooth="yes"/>
      <point x="263.91231916179726" y="-3.0"/>
      <point x="268.1661798571866" y="-2.0"/>
    </contour>
    <contour>
      <point x="537.1801410743353" y="536.0" type="curve" smooth="yes"/>
      <point x="479.0220031058806" y="536.0"/>
      <point x="406.8475311991318" y="487.7124253933804"/>
      <point x="352.0406945198047" y="388.0" type="curve" smooth="yes"/>
      <point x="327.61367335865435" y="344.57297883884974"/>
      <point x="328.566467715681" y="334.2381985892566"/>
      <point x="343.8046663049376" y="321.19099294628325" type="curve"/>
      <point x="411.46771568095494" y="425.0944112859468"/>
      <point x="477.47038343280883" y="488.28540423223006"/>
      <point x="525.8475311991318" y="488.28540423223006" type="curve" smooth="yes"/>
      <point x="563.7567780442126" y="488.28540423223006"/>
      <point x="568.7594158341585" y="462.32248021129635"/>
      <point x="563.802495930548" y="409.28540423223006" type="curve"/>
      <point x="598.6588221933399" y="409.28540423223006"/>
      <point x="602.5642973412914" y="414.2381985892566"/>
      <point x="604.8497015735214" y="425.9055887140532" type="curve" smooth="yes"/>
      <point x="620.0857297883884" y="483.66739012479655"/>
      <point x="595.6565382528486" y="536.0"/>
    </contour>
    <contour>
      <point x="507.67390124796526" y="0.0" type="curve"/>
      <point x="509.5899111497069" y="43.0"/>
      <point x="516.4807379272925" y="77.0"/>
      <point x="528.1526274762434" y="124.0" type="curve" smooth="yes"/>
      <point x="604.8497015735214" y="425.9055887140532" type="line" smooth="yes"/>
      <point x="613.2295170916983" y="459.9055887140532"/>
      <point x="603.5621269669018" y="478.9055887140532"/>
      <point x="578.5621269669018" y="478.9055887140532" type="curve"/>
      <point x="529.186652197504" y="321.19099294628325"/>
      <point x="502.240123960689" y="227.29587978512484"/>
      <point x="476.4064881716327" y="125.0" type="curve" smooth="yes"/>
      <point x="475.137184694686" y="120.0" type="line" smooth="yes"/>
      <point x="448.48181167880534" y="15.0"/>
      <point x="469.1661798571866" y="-2.0"/>
      <point x="491.1661798571866" y="-2.0" type="curve" smooth="yes"/>
      <point x="500.1661798571866" y="-2.0"/>
      <point x="504.4200405525759" y="-1.0"/>
    </contour>
  </outline>
</glyph>
<glyph name="n" format="1">
  <advance width="600.0"/>
  <unicode hex="006E"/>
  <outline>
    <contour>
      <point x="95.15029842647856" y="-5.0" type="curve"/>
      <point x="213.2295170916983" y="459.0" type="line" smooth="yes"/>
      <point x="220.0857297883885" y="486.0"/>
      <point x="224.18014107433532" y="508.0"/>
      <point x="215.22734671730873" y="520.0" type="curve" smooth="yes"/>
      <point x="207.5127509495388" y="530.0"/>
      <point x="197.27455236028214" y="532.0"/>
      <point x="187.27455236028214" y="532.0" type="curve" smooth="yes"/>
      <point x="182.05049312182823" y="532.0"/>
      <point x="174.9448497555645" y="531.0775600867076"/>
      <point x="169.75094953879545" y="529.0" type="curve"/>
      <point x="171.89473684210526" y="502.0"/>
      <point x="170.84753119913185" y="489.0"/>
      <point x="158.65870862723818" y="442.0" type="curve" smooth="yes"/>
      <point x="51.2447097124254" y="18.0" type="line" smooth="yes"/>
      <point x="46.67390124796528" y="0.0"/>
      <point x="63.15029842647857" y="-5.0"/>
      <point x="85.15029842647857" y="-5.0" type="curve" smooth="yes"/>
      <point x="88.15029842647857" y="-5.0"/>
      <point x="92.15029842647857" y="-5.0"/>
    </contour>
    <contour>
      <point x="444.32392837764513" y="537.0" type="curve" smooth="yes"/>
      <point x="361.41833966359195" y="537.0"/>
      <point x="255.32609875203474" y="452.33260987520345"/>
      <point x="172.47205642973412" y="334.57080846446013" type="curve" smooth="yes"/>
      <point x="149.8540423223006" y="302.28540423223006"/>
      <point x="139.4742268041237" y="268.0"/>
      <point x="145.57080846446013" y="225.71459576776994" type="curve"/>
      <point x="227.851871947911" y="358.71459576776994"/>
      <point x="347.2295170916983" y="489.28540423223006"/>
      <point x="443.5621269669018" y="489.28540423223006" type="curve" smooth="yes"/>
      <point x="495.79003675303795" y="489.28540423223006"/>
      <point x="513.6856692062368" y="452.23614809979347"/>
      <point x="502.4226804123711" y="372.28540423223006" type="curve"/>
      <point x="539.3453739236547" y="374.35443838900227"/>
      <point x="544.1679825743779" y="385.71642847671757"/>
      <point x="547.2316874660879" y="397.0" type="curve" smooth="yes"/>
      <point x="565.5149213239283" y="466.66739012479655"/>
      <point x="531.7037438958221" y="537.0"/>
    </contour>
    <contour>
      <point x="457.67390124796526" y="0.0" type="curve"/>
      <point x="459.3391209983722" y="43.0"/>
      <point x="466.48073792729247" y="77.0"/>
      <point x="477.90775908844273" y="124.0" type="curve" smooth="yes"/>
      <point x="547.2316874660879" y="397.0" type="line"/>
      <point x="555.6115029842648" y="429.4763971785133"/>
      <point x="547.4677156809549" y="444.66739012479655"/>
      <point x="517.1351058057514" y="444.66739012479655" type="curve"/>
      <point x="468.52143244709714" y="287.71459576776994"/>
      <point x="454.8562126966902" y="236.71459576776994"/>
      <point x="428.95496473141617" y="135.0" type="curve" smooth="yes"/>
      <point x="427.4313619099295" y="130.0" type="line" smooth="yes"/>
      <point x="400.7683125339121" y="25.0"/>
      <point x="418.91209983722194" y="-2.0"/>
      <point x="444.91209983722194" y="-2.0" type="curve" smooth="yes"/>
      <point x="449.91209983722194" y="-2.0"/>
      <point x="454.67390124796526" y="-1.0"/>
    </contour>
  </outline>
</glyph>
<glyph name="y" format="1">
  <advance width="600.0"/>
  <unicode hex="0079"/>
  <outline>
    <contour>
      <point x="556.1823114487249" y="529.0" type="curve" smooth="yes"/>
      <point x="550.1823114487249" y="529.0"/>
      <point x="545.1823114487249" y="528.0"/>
      <point x="540.4205100379816" y="526.0" type="curve"/>
      <point x="406.6717308735757" y="145.0"/>
      <point x="288.72544763971786" y="-27.0"/>
      <point x="158.01519262072708" y="-130.28540423223006" type="curve" smooth="yes"/>
      <point x="95.30276722734675" y="-180.80900705371675"/>
      <point x="37.25556158437331" y="-202.71459576776994"/>
      <point x="-21.74443841562669" y="-202.71459576776994" type="curve" smooth="yes"/>
      <point x="-36.74443841562669" y="-202.71459576776994" type="line"/>
      <point x="-37.506239826370035" y="-205.71459576776994" type="line" smooth="yes"/>
      <point x="-44.3624525230602" y="-232.71459576776994"/>
      <point x="-31.027300814236753" y="-250.0"/>
      <point x="-14.027300814236753" y="-250.0" type="curve" smooth="yes"/>
      <point x="-9.027300814236753" y="-250.0" type="line" smooth="yes"/>
      <point x="55.97269918576325" y="-250.0"/>
      <point x="125.8423807428328" y="-219.0"/>
      <point x="194.80471898924648" y="-164.0" type="curve" smooth="yes"/>
      <point x="327.71395270051653" y="-58.0"/>
      <point x="456.45520621526975" y="134.0"/>
      <point x="585.6066386416001" y="497.0" type="curve" smooth="yes"/>
      <point x="593.4454346355549" y="520.0"/>
      <point x="581.1823114487249" y="529.0"/>
    </contour>
    <contour>
      <point x="150.730180894059" y="529.0" type="curve" smooth="yes"/>
      <point x="144.73018089405898" y="529.0"/>
      <point x="139.47632019866967" y="528.0"/>
      <point x="133.96859880789097" y="526.0" type="curve"/>
      <point x="99.42919153553989" y="236.80683667932718"/>
      <point x="122.76614215952253" y="142.57080846446013"/>
      <point x="164.00651112316876" y="76.57080846446011" type="curve" smooth="yes"/>
      <point x="189.34129137276182" y="35.57080846446012"/>
      <point x="246.24688008681497" y="0.0"/>
      <point x="305.4378730330982" y="0.0" type="curve" smooth="yes"/>
      <point x="312.4378730330982" y="0.0" type="line" smooth="yes"/>
      <point x="324.4378730330982" y="0.0"/>
      <point x="345.991922768549" y="14.0"/>
      <point x="353.1000222394505" y="42.0" type="curve"/>
      <point x="337.1000222394505" y="42.0" type="line"/>
      <point x="267.1000222394505" y="42.0"/>
      <point x="222.48290830168204" y="74.0"/>
      <point x="205.86272381985896" y="103.23819858925665" type="curve" smooth="yes"/>
      <point x="161.19316332067282" y="176.19099294628325"/>
      <point x="156.18882257189364" y="305.6201844818231"/>
      <point x="181.08790016277806" y="482.4763971785133" type="curve" smooth="yes"/>
      <point x="187.753119913185" y="525.0"/>
      <point x="174.730180894059" y="529.0"/>
    </contour>
  </outline>
</glyph>
<glyph name="z" format="1">
  <advance width="600.0"/>
  <unicode hex="007A"/>
  <outline>
    <contour>
      <point x="152.968598807891" y="526.0" type="line"/>
      <point x="152.20701672172294" y="523.0"/>
      <point x="151.1915739401656" y="519.0"/>
      <point x="150.4299918539976" y="516.0" type="curve" smooth="yes"/>
      <point x="146.11436003237878" y="499.0"/>
      <point x="147.33733516465344" y="491.28540423223006"/>
      <point x="153.30644960153865" y="483.28540423223006" type="curve" smooth="yes"/>
      <point x="155.5448675153707" y="480.28540423223006"/>
      <point x="159.03714612459197" y="478.28540423223006"/>
      <point x="164.03714612459197" y="478.28540423223006" type="curve" smooth="yes"/>
      <point x="518.037146124592" y="478.28540423223006" type="line" smooth="yes"/>
      <point x="533.037146124592" y="478.28540423223006"/>
      <point x="547.79872821076" y="481.28540423223006"/>
      <point x="563.5757530784854" y="488.28540423223006" type="curve"/>
      <point x="564.0834744692642" y="490.28540423223006" type="line" smooth="yes"/>
      <point x="567.4205100379816" y="505.19099294628325"/>
      <point x="565.9222704632189" y="514.0"/>
      <point x="560.6992953309443" y="521.0" type="curve" smooth="yes"/>
      <point x="558.4608774171122" y="524.0"/>
      <point x="554.968598807891" y="526.0"/>
      <point x="549.968598807891" y="526.0" type="curve" smooth="yes"/>
    </contour>
    <contour>
      <point x="514.2316874660879" y="503.0" type="curve"/>
      <point x="411.66521975040695" y="354.2381985892566"/>
      <point x="223.6695604991861" y="170.33260987520347"/>
      <point x="29.592300848671805" y="40.71459576776994" type="curve"/>
      <point x="23.499644159327644" y="16.71459576776994"/>
      <point x="79.05371676614216" y="15.714595767769941"/>
      <point x="105.10092240911558" y="33.476397178513295" type="curve" smooth="yes"/>
      <point x="328.24036896364623" y="184.0"/>
      <point x="555.4522108260265" y="456.28540423223006"/>
      <point x="563.5757530784854" y="488.28540423223006" type="curve"/>
      <point x="566.8759421185468" y="501.28540423223006"/>
      <point x="543.2788931090613" y="503.0"/>
    </contour>
    <contour>
      <point x="439.4378730330982" y="0.0" type="line"/>
      <point x="440.19945511926625" y="3.0"/>
      <point x="441.2148979008236" y="7.0"/>
      <point x="441.9764799869916" y="10.0" type="curve"/>
      <point x="447.81527598094647" y="33.0"/>
      <point x="446.36932571639716" y="47.71459576776994"/>
      <point x="428.36932571639716" y="47.71459576776994" type="curve" smooth="yes"/>
      <point x="97.3693257163972" y="47.71459576776994" type="line" smooth="yes"/>
      <point x="76.3693257163972" y="47.71459576776994"/>
      <point x="54.11546502100784" y="46.71459576776994"/>
      <point x="29.592300848671805" y="40.71459576776994" type="curve"/>
      <point x="28.830718762503793" y="37.714595767769936" type="line" smooth="yes"/>
      <point x="24.515086940885013" y="20.714595767769943"/>
      <point x="25.73806207315964" y="13.0"/>
      <point x="31.707176510044917" y="5.0" type="curve" smooth="yes"/>
      <point x="33.945594423876905" y="2.0"/>
      <point x="37.437873033098214" y="0.0"/>
      <point x="42.437873033098214" y="0.0" type="curve" smooth="yes"/>
    </contour>
  </outline>
</glyph>
<glyph name="cent" format="1">
  <advance width="600"/>
  <unicode hex="00A2"/>
  <outline>
    <contour>
      <point x="343" y="427.0" type="line"/>
      <point x="362.0" y="712.0" type="line" smooth="yes"/>
      <point x="365" y="751"/>
      <point x="356" y="766.0"/>
      <point x="326.0" y="766.0" type="curve" smooth="yes"/>
      <point x="316" y="766.0"/>
      <point x="306" y="764.0"/>
      <point x="300" y="762.0" type="curve"/>
      <point x="306.0" y="738.0"/>
      <point x="307.0" y="716"/>
      <point x="307" y="675" type="curve"/>
      <point x="307" y="455" type="line" smooth="yes"/>
      <point x="307.0" y="437.0"/>
      <point x="318" y="427"/>
      <point x="339.0" y="427.0" type="curve" smooth="yes"/>
    </contour>
    <contour>
      <point x="302.0" y="267.0" type="line"/>
      <point x="283.0" y="-18.0" type="line" smooth="yes"/>
      <point x="280.0" y="-57.0"/>
      <point x="289.0" y="-72.0"/>
      <point x="319.0" y="-72.0" type="curve" smooth="yes"/>
      <point x="329.0" y="-72.0"/>
      <point x="339.0" y="-70.0"/>
      <point x="345.0" y="-68.0" type="curve"/>
      <point x="339.0" y="-44.0"/>
      <point x="338.0" y="-22.0"/>
      <point x="338.0" y="19.0" type="curve"/>
      <point x="338.0" y="239.0" type="line" smooth="yes"/>
      <point x="338.0" y="257.0"/>
      <point x="327.0" y="267.0"/>
      <point x="306.0" y="267.0" type="curve" smooth="yes"/>
    </contour>
    <component base="c" yOffset="87"/>
  </outline>
</glyph>
<glyph name="sterling" format="1">
  <advance width="600"/>
  <unicode hex="00A3"/>
  <outline>
    <contour>
      <point x="301" y="669" type="curve" smooth="yes"/>
      <point x="399.0" y="669.0"/>
      <point x="460.0" y="634.0"/>
      <point x="504" y="566" type="curve"/>
      <point x="508" y="566" type="line"/>
      <point x="513.0" y="579.0"/>
      <point x="514.0" y="589.0"/>
      <point x="514" y="603" type="curve" smooth="yes"/>
      <point x="514.0" y="622.0"/>
      <point x="511.05778756769286" y="635.9422124323071"/>
      <point x="492" y="655" type="curve" smooth="yes"/>
      <point x="458.55632637250056" y="688.4436736274995"/>
      <point x="390.33870967741933" y="719.0"/>
      <point x="301" y="719" type="curve" smooth="yes"/>
      <point x="171.0" y="719.0"/>
      <point x="87" y="650.0"/>
      <point x="87" y="546" type="curve" smooth="yes"/>
      <point x="87" y="540" type="line" smooth="yes"/>
      <point x="87" y="503.54347826086956"/>
      <point x="108.35714285714286" y="497.0"/>
      <point x="126.0" y="497.0" type="curve"/>
      <point x="126.0" y="605.1142857142858"/>
      <point x="177.88953488372093" y="669.0"/>
    </contour>
    <contour>
      <point x="87" y="540" type="curve" smooth="yes"/>
      <point x="87.0" y="400.0"/>
      <point x="202.0" y="290.0"/>
      <point x="202" y="149" type="curve" smooth="yes"/>
      <point x="202.0" y="72.0"/>
      <point x="168.0" y="38.0"/>
      <point x="108" y="38.0" type="curve" smooth="yes"/>
      <point x="85.0" y="38.0"/>
      <point x="70.0" y="40.0"/>
      <point x="55" y="51" type="curve"/>
      <point x="51" y="51" type="line"/>
      <point x="48.0" y="44"/>
      <point x="47.0" y="40"/>
      <point x="47" y="33" type="curve" smooth="yes"/>
      <point x="47.0" y="4.0"/>
      <point x="64" y="-12"/>
      <point x="107" y="-12" type="curve" smooth="yes"/>
      <point x="112" y="-12" type="line" smooth="yes"/>
      <point x="211.0" y="-12"/>
      <point x="250.0" y="57.0"/>
      <point x="250.0" y="148" type="curve" smooth="yes"/>
      <point x="250.0" y="300.0"/>
      <point x="133.0" y="412.0"/>
      <point x="133" y="558" type="curve" smooth="yes"/>
      <point x="133.0" y="579.0"/>
      <point x="135.0" y="599.0"/>
      <point x="142" y="620" type="curve"/>
      <point x="94.0" y="620.0"/>
      <point x="87.0" y="581.0"/>
    </contour>
    <contour>
      <point x="203" y="77" type="curve"/>
      <point x="291" y="21.0"/>
      <point x="364.0" y="-12.0"/>
      <point x="441" y="-12.0" type="curve" smooth="yes"/>
      <point x="452" y="-12" type="line" smooth="yes"/>
      <point x="520" y="-12"/>
      <point x="552" y="25"/>
      <point x="552" y="60" type="curve"/>
      <point x="552.0" y="77"/>
      <point x="546.0" y="91"/>
      <point x="539" y="101" type="curve"/>
      <point x="535" y="101" type="line"/>
      <point x="520.0" y="55.0"/>
      <point x="497.0" y="38.0"/>
      <point x="446" y="38" type="curve" smooth="yes"/>
      <point x="374.0" y="38.0"/>
      <point x="303" y="68.0"/>
      <point x="224" y="119" type="curve"/>
      <point x="216.0" y="124"/>
      <point x="203.0" y="104"/>
    </contour>
    <contour>
      <point x="50" y="350" type="line"/>
      <point x="50.0" y="347"/>
      <point x="50.0" y="343"/>
      <point x="50" y="340" type="curve" smooth="yes"/>
      <point x="50" y="324"/>
      <point x="53" y="313"/>
      <point x="61" y="305" type="curve" smooth="yes"/>
      <point x="64" y="302"/>
      <point x="68.0" y="300.0"/>
      <point x="73" y="300" type="curve" smooth="yes"/>
      <point x="440" y="300" type="line"/>
      <point x="440.0" y="303"/>
      <point x="440.0" y="307"/>
      <point x="440" y="310" type="curve" smooth="yes"/>
      <point x="440.0" y="332.0"/>
      <point x="435.0" y="350.0"/>
      <point x="417" y="350" type="curve" smooth="yes"/>
    </contour>
  </outline>
</glyph>
<glyph name="currency" format="1">
  <advance width="600"/>
  <unicode hex="00A4"/>
  <outline>
    <contour>
      <point x="372" y="409" type="curve"/>
      <point x="374" y="407"/>
      <point x="377" y="404"/>
      <point x="379" y="402" type="curve" smooth="yes"/>
      <point x="394.0" y="387.0"/>
      <point x="411.0" y="382.0"/>
      <point x="423.0" y="391.0" type="curve" smooth="yes"/>
      <point x="451" y="415"/>
      <point x="479.0" y="441.0"/>
      <point x="506" y="473" type="curve" smooth="yes"/>
      <point x="504.0" y="475.0"/>
      <point x="501" y="478"/>
      <point x="499" y="480" type="curve"/>
      <point x="489" y="491"/>
      <point x="478" y="499"/>
      <point x="468" y="499" type="curve" smooth="yes"/>
      <point x="463.0" y="499.0"/>
      <point x="459.0" y="497.0"/>
      <point x="455" y="492" type="curve" smooth="yes"/>
      <point x="429" y="460"/>
      <point x="401" y="432"/>
    </contour>
    <contour>
      <point x="228" y="409" type="curve"/>
      <point x="198" y="434"/>
      <point x="171" y="461"/>
      <point x="146" y="491" type="curve" smooth="yes"/>
      <point x="142.0" y="497.0"/>
      <point x="137.0" y="499.0"/>
      <point x="132" y="499" type="curve" smooth="yes"/>
      <point x="122" y="499"/>
      <point x="111" y="491"/>
      <point x="101" y="480" type="curve"/>
      <point x="99" y="478"/>
      <point x="96.0" y="475.0"/>
      <point x="94" y="473" type="curve" smooth="yes"/>
      <point x="119.0" y="443.0"/>
      <point x="146" y="415"/>
      <point x="174" y="391.0" type="curve" smooth="yes"/>
      <point x="186" y="380"/>
      <point x="206.0" y="387.0"/>
      <point x="221" y="402" type="curve" smooth="yes"/>
      <point x="223" y="404"/>
      <point x="226" y="407"/>
    </contour>
    <contour>
      <point x="224.0" y="187.0" type="curve"/>
      <point x="222.0" y="189.0"/>
      <point x="219.0" y="192.0"/>
      <point x="217.0" y="194.0" type="curve" smooth="yes"/>
      <point x="202.0" y="209.0"/>
      <point x="185.0" y="214.0"/>
      <point x="173.0" y="205.0" type="curve" smooth="yes"/>
      <point x="145.0" y="181.0"/>
      <point x="117.0" y="155.0"/>
      <point x="90.0" y="123.0" type="curve" smooth="yes"/>
      <point x="92.0" y="121.0"/>
      <point x="95.0" y="118.0"/>
      <point x="97.0" y="116.0" type="curve"/>
      <point x="107.0" y="105.0"/>
      <point x="118.0" y="97.0"/>
      <point x="128.0" y="97.0" type="curve" smooth="yes"/>
      <point x="133.0" y="97.0"/>
      <point x="137.0" y="99.0"/>
      <point x="141.0" y="104.0" type="curve" smooth="yes"/>
      <point x="167.0" y="136.0"/>
      <point x="195.0" y="164.0"/>
    </contour>
    <contour>
      <point x="371.0" y="188.0" type="curve"/>
      <point x="401.0" y="163.0"/>
      <point x="428.0" y="136.0"/>
      <point x="453.0" y="106.0" type="curve" smooth="yes"/>
      <point x="458.0" y="100.0"/>
      <point x="462.0" y="98.0"/>
      <point x="467.0" y="98.0" type="curve" smooth="yes"/>
      <point x="477.0" y="98.0"/>
      <point x="488.0" y="106.0"/>
      <point x="498.0" y="117.0" type="curve"/>
      <point x="500.0" y="119.0"/>
      <point x="503.0" y="122.0"/>
      <point x="505.0" y="124.0" type="curve" smooth="yes"/>
      <point x="480.0" y="154.0"/>
      <point x="453.0" y="182.0"/>
      <point x="425.0" y="206.0" type="curve" smooth="yes"/>
      <point x="413.0" y="217.0"/>
      <point x="393.0" y="210.0"/>
      <point x="378.0" y="195.0" type="curve" smooth="yes"/>
      <point x="376.0" y="193.0"/>
      <point x="373.0" y="190.0"/>
    </contour>
    <component base="degree" yOffset="-242"/>
  </outline>
</glyph>
<glyph name="yen" format="1">
  <advance width="600"/>
  <unicode hex="00A5"/>
  <outline>
    <contour>
      <point x="40" y="380" type="line"/>
      <point x="40.0" y="377.0"/>
      <point x="40.0" y="373.0"/>
      <point x="40" y="370" type="curve" smooth="yes"/>
      <point x="40" y="354"/>
      <point x="43" y="343"/>
      <point x="51" y="335" type="curve" smooth="yes"/>
      <point x="54" y="332"/>
      <point x="58" y="330"/>
      <point x="63" y="330" type="curve"/>
      <point x="200" y="330" type="line"/>
      <point x="200.0" y="333.0"/>
      <point x="200.0" y="337.0"/>
      <point x="200" y="340" type="curve" smooth="yes"/>
      <point x="200.0" y="362.0"/>
      <point x="195.0" y="380.0"/>
      <point x="177" y="380" type="curve"/>
    </contour>
    <contour>
      <point x="400" y="380" type="line"/>
      <point x="394.0" y="372.0"/>
      <point x="390.0" y="364.0"/>
      <point x="390.0" y="353" type="curve" smooth="yes"/>
      <point x="390.0" y="343.0"/>
      <point x="392.0" y="330.0"/>
      <point x="410" y="330" type="curve"/>
      <point x="560" y="330" type="line"/>
      <point x="560.0" y="333.0"/>
      <point x="560.0" y="337.0"/>
      <point x="560" y="340" type="curve" smooth="yes"/>
      <point x="560.0" y="362.0"/>
      <point x="555.0" y="380.0"/>
      <point x="537" y="380" type="curve"/>
    </contour>
    <contour>
      <point x="560.0" y="130.0" type="line"/>
      <point x="560.0" y="133.0"/>
      <point x="560.0" y="137.0"/>
      <point x="560.0" y="140.0" type="curve" smooth="yes"/>
      <point x="560.0" y="156.0"/>
      <point x="557.0" y="167.0"/>
      <point x="549.0" y="175.0" type="curve" smooth="yes"/>
      <point x="546.0" y="178.0"/>
      <point x="542.0" y="180.0"/>
      <point x="537.0" y="180.0" type="curve"/>
      <point x="40.0" y="180.0" type="line"/>
      <point x="40.0" y="177.0"/>
      <point x="40.0" y="173.0"/>
      <point x="40.0" y="170.0" type="curve" smooth="yes"/>
      <point x="40.0" y="148.0"/>
      <point x="45.0" y="130.0"/>
      <point x="63.0" y="130.0" type="curve"/>
    </contour>
    <component base="Y"/>
  </outline>
</glyph>
<glyph name="brokenbar" format="1">
  <advance width="600"/>
  <unicode hex="00A6"/>
  <outline>
    <contour>
      <point x="268.0" y="760.0" type="curve"/>
      <point x="274.0" y="725.0"/>
      <point x="275" y="690"/>
      <point x="275.0" y="653.0" type="curve" smooth="yes"/>
      <point x="275.0" y="393.0" type="line" smooth="yes"/>
      <point x="275.0" y="375.0"/>
      <point x="293.0" y="370.0"/>
      <point x="315.0" y="370.0" type="curve" smooth="yes"/>
      <point x="318.0" y="370.0"/>
      <point x="322" y="370.0"/>
      <point x="325.0" y="370.0" type="curve"/>
      <point x="325.0" y="703.0" type="line" smooth="yes"/>
      <point x="325" y="725"/>
      <point x="323.0" y="743.0"/>
      <point x="311.0" y="755.0" type="curve" smooth="yes"/>
      <point x="306.0" y="760.0"/>
      <point x="299.0" y="763.0"/>
      <point x="285.0" y="763.0" type="curve" smooth="yes"/>
      <point x="279.0" y="763.0"/>
      <point x="274.0" y="762.0"/>
    </contour>
    <contour>
      <point x="275.0" y="230.0" type="curve"/>
      <point x="275.0" y="-137.0" type="line"/>
      <point x="275.0" y="-155.0"/>
      <point x="293.0" y="-160.0"/>
      <point x="315.0" y="-160.0" type="curve" smooth="yes"/>
      <point x="318.0" y="-160.0"/>
      <point x="322" y="-160.0"/>
      <point x="325.0" y="-160.0" type="curve"/>
      <point x="325.0" y="196" type="line" smooth="yes"/>
      <point x="325.0" y="219.0"/>
      <point x="319.0" y="233.0"/>
      <point x="289" y="233.0" type="curve" smooth="yes"/>
      <point x="283" y="233"/>
      <point x="278.0" y="232.0"/>
    </contour>
  </outline>
</glyph>
<glyph name="copyright" format="1">
  <advance width="600"/>
  <unicode hex="00A9"/>
  <outline>
    <contour>
      <point x="300" y="715" type="curve" smooth="yes"/>
      <point x="124.0" y="715.0"/>
      <point x="23" y="585"/>
      <point x="23" y="359" type="curve" smooth="yes"/>
      <point x="23" y="351" type="line" smooth="yes"/>
      <point x="23" y="115"/>
      <point x="121.0" y="-15.0"/>
      <point x="300" y="-15" type="curve" smooth="yes"/>
      <point x="327" y="-15.0"/>
      <point x="336.0" y="1.0"/>
      <point x="336" y="15" type="curve"/>
      <point x="170.0" y="15.0"/>
      <point x="71" y="120"/>
      <point x="71" y="335" type="curve" smooth="yes"/>
      <point x="71" y="366" type="line" smooth="yes"/>
      <point x="71" y="560"/>
      <point x="154.0" y="668.0"/>
      <point x="300" y="668" type="curve" smooth="yes"/>
      <point x="381" y="668.0"/>
      <point x="444" y="636"/>
      <point x="493" y="595" type="curve"/>
      <point x="542" y="635"/>
      <point x="391" y="715.0"/>
    </contour>
    <contour>
      <point x="300.0" y="-15.0" type="curve" smooth="yes"/>
      <point x="476.0" y="-15.0"/>
      <point x="577.0" y="115.0"/>
      <point x="577.0" y="341.0" type="curve" smooth="yes"/>
      <point x="577.0" y="349.0" type="line" smooth="yes"/>
      <point x="577.0" y="585.0"/>
      <point x="479.0" y="715.0"/>
      <point x="300.0" y="715.0" type="curve" smooth="yes"/>
      <point x="273.0" y="715.0"/>
      <point x="264.0" y="699.0"/>
      <point x="264.0" y="685.0" type="curve"/>
      <point x="430.0" y="685.0"/>
      <point x="529.0" y="580"/>
      <point x="529.0" y="365.0" type="curve" smooth="yes"/>
      <point x="529.0" y="334.0" type="line" smooth="yes"/>
      <point x="529" y="140"/>
      <point x="446.0" y="32.0"/>
      <point x="300.0" y="32.0" type="curve" smooth="yes"/>
      <point x="219.0" y="32.0"/>
      <point x="156.0" y="64.0"/>
      <point x="107.0" y="105.0" type="curve"/>
      <point x="57.0" y="65.0"/>
      <point x="209.0" y="-15.0"/>
    </contour>
    <contour>
      <point x="307" y="522.0" type="curve" smooth="yes"/>
      <point x="352" y="522.0"/>
      <point x="373" y="502"/>
      <point x="394" y="454" type="curve"/>
      <point x="411" y="454"/>
      <point x="416.0" y="464.0"/>
      <point x="416" y="471" type="curve" smooth="yes"/>
      <point x="416.0" y="494.0"/>
      <point x="410.0" y="512"/>
      <point x="389" y="533" type="curve" smooth="yes"/>
      <point x="366.0" y="556.0"/>
      <point x="343" y="566"/>
      <point x="306" y="566" type="curve" smooth="yes"/>
      <point x="218.0" y="566.0"/>
      <point x="165" y="483.0"/>
      <point x="165.0" y="342" type="curve" smooth="yes"/>
      <point x="165.0" y="331" type="line" smooth="yes"/>
      <point x="165.0" y="289.0"/>
      <point x="188.0" y="169.0"/>
      <point x="246" y="190" type="curve"/>
      <point x="222.0" y="238"/>
      <point x="213.0" y="259.0"/>
      <point x="213" y="341" type="curve" smooth="yes"/>
      <point x="213" y="352" type="line" smooth="yes"/>
      <point x="213" y="467.0"/>
      <point x="248.0" y="522.0"/>
    </contour>
    <contour>
      <point x="308" y="134.0" type="curve" smooth="yes"/>
      <point x="355.0" y="134.0"/>
      <point x="387.0" y="151"/>
      <point x="402" y="170" type="curve"/>
      <point x="412" y="182"/>
      <point x="414.0" y="192.0"/>
      <point x="414" y="207" type="curve" smooth="yes"/>
      <point x="414.0" y="218"/>
      <point x="413.0" y="228"/>
      <point x="410" y="238" type="curve"/>
      <point x="406" y="238" type="line"/>
      <point x="383" y="197.0"/>
      <point x="350.0" y="180.0"/>
      <point x="305" y="180.0" type="curve" smooth="yes"/>
      <point x="249.0" y="180.0"/>
      <point x="200.0" y="229.0"/>
      <point x="195" y="347" type="curve"/>
      <point x="174" y="347"/>
      <point x="165" y="347"/>
      <point x="165.0" y="331" type="curve" smooth="yes"/>
      <point x="165" y="188.0"/>
      <point x="219" y="134.0"/>
    </contour>
    <contour>
      <point x="416" y="411" type="curve"/>
      <point x="416" y="471" type="line" smooth="yes"/>
      <point x="416" y="487"/>
      <point x="387" y="543.0"/>
      <point x="347" y="531" type="curve"/>
      <point x="366.0" y="505.0"/>
      <point x="367" y="496"/>
      <point x="367.0" y="475" type="curve" smooth="yes"/>
      <point x="367" y="446" type="line" smooth="yes"/>
      <point x="367.0" y="420.0"/>
      <point x="379.0" y="407.0"/>
      <point x="401" y="407" type="curve" smooth="yes"/>
      <point x="409.0" y="407.0"/>
      <point x="412.0" y="408.0"/>
    </contour>
  </outline>
</glyph>
<glyph name="ordfeminine" format="1">
  <advance width="600"/>
  <unicode hex="00AA"/>
  <outline>
    <contour>
      <point x="284" y="759.0" type="curve" smooth="yes"/>
      <point x="232.7124183006536" y="759.0"/>
      <point x="167.8646145794529" y="746.8646145794529"/>
      <point x="151" y="730" type="curve" smooth="yes"/>
      <point x="143" y="722"/>
      <point x="140" y="713"/>
      <point x="140" y="698" type="curve" smooth="yes"/>
      <point x="140" y="692.0"/>
      <point x="141" y="687"/>
      <point x="143" y="682" type="curve"/>
      <point x="147" y="682" type="line"/>
      <point x="179.0151217093657" y="696.2289429819403"/>
      <point x="227.51677852348993" y="709.0"/>
      <point x="276" y="709.0" type="curve" smooth="yes"/>
      <point x="391.3932584269663" y="709.0"/>
      <point x="425.0067074795689" y="657.9202555206812"/>
      <point x="434" y="551.0" type="curve"/>
      <point x="450" y="551"/>
      <point x="459" y="559"/>
      <point x="459" y="575.0" type="curve"/>
      <point x="459.0" y="691.0"/>
      <point x="397.974358974359" y="759.0"/>
    </contour>
    <contour>
      <point x="360" y="711" type="curve"/>
      <point x="395.60457709033557" y="670.3090547539023"/>
      <point x="409.0" y="640.939393939394"/>
      <point x="409" y="575.0" type="curve" smooth="yes"/>
      <point x="409.0" y="508"/>
      <point x="409.0" y="454"/>
      <point x="409" y="401" type="curve" smooth="yes"/>
      <point x="409" y="336"/>
      <point x="439" y="323"/>
      <point x="473" y="330" type="curve"/>
      <point x="461" y="354"/>
      <point x="459" y="371"/>
      <point x="459" y="401" type="curve" smooth="yes"/>
      <point x="459.0" y="465"/>
      <point x="459.0" y="489"/>
      <point x="459" y="575.0" type="curve" smooth="yes"/>
      <point x="459.0" y="657.4242424242424"/>
      <point x="409.0301376556375" y="718.0043053793768"/>
    </contour>
    <contour>
      <point x="539" y="351.0" type="line"/>
      <point x="535.0" y="351.0" type="line"/>
      <point x="522" y="345.0"/>
      <point x="507" y="341.0"/>
      <point x="490" y="341.0" type="curve" smooth="yes"/>
      <point x="468" y="341.0"/>
      <point x="450" y="346"/>
      <point x="449" y="426" type="curve"/>
      <point x="419" y="428"/>
      <point x="409" y="420"/>
      <point x="409" y="401" type="curve" smooth="yes"/>
      <point x="409" y="326"/>
      <point x="435" y="291"/>
      <point x="492" y="291" type="curve" smooth="yes"/>
      <point x="495" y="291" type="line" smooth="yes"/>
      <point x="530" y="291"/>
      <point x="539" y="313"/>
      <point x="539" y="344" type="curve"/>
    </contour>
    <contour>
      <point x="161.0" y="416" type="curve" smooth="yes"/>
      <point x="161" y="424" type="line" smooth="yes"/>
      <point x="161" y="474.35714285714283"/>
      <point x="190.906615310034" y="499.06281312288627"/>
      <point x="213" y="518" type="curve"/>
      <point x="155.53035622840625" y="533.1235904662088"/>
      <point x="111" y="466.4578313253012"/>
      <point x="111" y="425" type="curve" smooth="yes"/>
      <point x="111" y="413" type="line" smooth="yes"/>
      <point x="111" y="337"/>
      <point x="158.56756756756755" y="291.0"/>
      <point x="239" y="291" type="curve" smooth="yes"/>
      <point x="321.56410256410254" y="291.0"/>
      <point x="379.01311913642553" y="348.6041052993404"/>
      <point x="414" y="404" type="curve" smooth="yes"/>
      <point x="424" y="420"/>
      <point x="428" y="435"/>
      <point x="428" y="473" type="curve"/>
      <point x="361.2270520518413" y="381.0662310858685"/>
      <point x="299.719806763285" y="342"/>
      <point x="241" y="342" type="curve" smooth="yes"/>
      <point x="238" y="342" type="line" smooth="yes"/>
      <point x="188.7835051546392" y="342"/>
      <point x="161.0" y="368"/>
    </contour>
    <contour>
      <point x="425" y="538" type="curve" smooth="yes"/>
      <point x="413" y="550"/>
      <point x="362" y="563.0"/>
      <point x="282" y="563" type="curve" smooth="yes"/>
      <point x="175" y="563.0"/>
      <point x="111" y="510"/>
      <point x="111" y="425" type="curve" smooth="yes"/>
      <point x="111" y="413"/>
      <point x="116" y="410"/>
      <point x="138" y="410" type="curve"/>
      <point x="155" y="479"/>
      <point x="192" y="513.0"/>
      <point x="285" y="513" type="curve" smooth="yes"/>
      <point x="336" y="513.0"/>
      <point x="384.0" y="509"/>
      <point x="434" y="497" type="curve"/>
      <point x="435.0" y="518.0"/>
      <point x="434.0" y="529.0"/>
    </contour>
  </outline>
</glyph>
<glyph name="logicalnot" format="1">
  <advance width="600"/>
  <unicode hex="00AC"/>
  <outline>
    <contour>
      <point x="70" y="410" type="line"/>
      <point x="70.0" y="407"/>
      <point x="70.0" y="403"/>
      <point x="70" y="400" type="curve" smooth="yes"/>
      <point x="70" y="384"/>
      <point x="73" y="373"/>
      <point x="81" y="365" type="curve" smooth="yes"/>
      <point x="84" y="362"/>
      <point x="88.0" y="360"/>
      <point x="93" y="360" type="curve"/>
      <point x="524" y="360" type="line"/>
      <point x="524" y="365" type="line"/>
      <point x="524.0" y="390.0"/>
      <point x="519.0" y="410.0"/>
      <point x="501" y="410" type="curve"/>
    </contour>
    <contour>
      <point x="524" y="137" type="curve"/>
      <point x="524" y="365" type="line" smooth="yes"/>
      <point x="524.0" y="382.0"/>
      <point x="502.0" y="383.0"/>
      <point x="479" y="383.0" type="curve"/>
      <point x="474" y="383" type="line"/>
      <point x="474" y="160" type="line" smooth="yes"/>
      <point x="474.0" y="142.0"/>
      <point x="492.0" y="137.0"/>
      <point x="514" y="137" type="curve" smooth="yes"/>
      <point x="517" y="137.0"/>
      <point x="521" y="137.0"/>
    </contour>
  </outline>
</glyph>
<glyph name="registered" format="1">
  <advance width="600"/>
  <unicode hex="00AE"/>
  <outline>
    <contour>
      <point x="246" y="328" type="curve"/>
      <point x="241.0" y="354"/>
      <point x="239.0" y="373.0"/>
      <point x="239" y="403" type="curve"/>
      <point x="239" y="538" type="line"/>
      <point x="239.0" y="590.0"/>
      <point x="228.0" y="611.0"/>
      <point x="197" y="611" type="curve"/>
      <point x="197" y="385" type="line" smooth="yes"/>
      <point x="197.0" y="347.0"/>
      <point x="207" y="325.0"/>
      <point x="229" y="325" type="curve" smooth="yes"/>
      <point x="235" y="325.0"/>
      <point x="240" y="326.0"/>
    </contour>
    <contour>
      <point x="172" y="627" type="curve"/>
      <point x="170.0" y="622"/>
      <point x="169.0" y="616.0"/>
      <point x="169.0" y="608" type="curve"/>
      <point x="169.0" y="597.0"/>
      <point x="173.0" y="586.0"/>
      <point x="183" y="586" type="curve"/>
      <point x="187.0" y="586.0"/>
      <point x="191.0" y="587.0"/>
      <point x="197" y="588" type="curve" smooth="yes"/>
      <point x="225" y="593.0"/>
      <point x="265.0" y="599.0"/>
      <point x="293" y="599" type="curve" smooth="yes"/>
      <point x="342.0" y="599.0"/>
      <point x="366" y="590.0"/>
      <point x="388" y="564" type="curve"/>
      <point x="415.0" y="604.0"/>
      <point x="357" y="640.0"/>
      <point x="303" y="640" type="curve" smooth="yes"/>
      <point x="262" y="640.0"/>
      <point x="226" y="636.0"/>
    </contour>
    <contour>
      <point x="419.0" y="548" type="curve" smooth="yes"/>
      <point x="419" y="556" type="line" smooth="yes"/>
      <point x="419" y="605.0"/>
      <point x="375" y="640.0"/>
      <point x="303" y="640" type="curve"/>
      <point x="283" y="640.0"/>
      <point x="276.0" y="629.0"/>
      <point x="276" y="610" type="curve"/>
      <point x="356.0" y="610.0"/>
      <point x="376" y="600"/>
      <point x="376.0" y="548" type="curve" smooth="yes"/>
      <point x="376.0" y="541" type="line" smooth="yes"/>
      <point x="376.0" y="496.0"/>
      <point x="321.0" y="464.0"/>
      <point x="236" y="464" type="curve" smooth="yes"/>
      <point x="218" y="464.0"/>
      <point x="214" y="464.0"/>
      <point x="210" y="464" type="curve"/>
      <point x="207.0" y="462.0"/>
      <point x="207.0" y="461.0"/>
      <point x="207" y="459" type="curve" smooth="yes"/>
      <point x="207.0" y="451"/>
      <point x="221.0" y="426.0"/>
      <point x="234" y="426" type="curve" smooth="yes"/>
      <point x="236" y="426" type="line" smooth="yes"/>
      <point x="332.0" y="426"/>
      <point x="419.0" y="469.0"/>
    </contour>
    <contour>
      <point x="345" y="470" type="line"/>
      <point x="328.0" y="465.0"/>
      <point x="308.0" y="454.0"/>
      <point x="314" y="439" type="curve" smooth="yes"/>
      <point x="339" y="371" type="line" smooth="yes"/>
      <point x="351" y="339"/>
      <point x="370.0" y="325"/>
      <point x="388" y="325" type="curve" smooth="yes"/>
      <point x="391" y="325.0" type="line" smooth="yes"/>
      <point x="414.0" y="325.0"/>
      <point x="421.0" y="337"/>
      <point x="421.0" y="354" type="curve"/>
      <point x="421.0" y="363"/>
      <point x="420.0" y="369"/>
      <point x="419" y="373" type="curve"/>
      <point x="416" y="373" type="line"/>
      <point x="410" y="369.0"/>
      <point x="403.0" y="367.0"/>
      <point x="395" y="367.0" type="curve"/>
      <point x="385.0" y="367.0"/>
      <point x="381" y="373"/>
      <point x="369" y="405" type="curve" smooth="yes"/>
    </contour>
    <contour>
      <point x="300" y="760" type="curve" smooth="yes"/>
      <point x="137.0" y="760.0"/>
      <point x="43" y="659.0"/>
      <point x="43" y="483" type="curve" smooth="yes"/>
      <point x="43" y="475" type="line" smooth="yes"/>
      <point x="43" y="299"/>
      <point x="133.92418772563178" y="200.0"/>
      <point x="300" y="200" type="curve" smooth="yes"/>
      <point x="327" y="200.0"/>
      <point x="336.0" y="216.0"/>
      <point x="336" y="230" type="curve"/>
      <point x="182.52830188679246" y="230.0"/>
      <point x="85" y="307"/>
      <point x="85" y="463" type="curve" smooth="yes"/>
      <point x="85" y="494" type="line" smooth="yes"/>
      <point x="85" y="635.0"/>
      <point x="167.0" y="716.0"/>
      <point x="300" y="716" type="curve" smooth="yes"/>
      <point x="377" y="716.0"/>
      <point x="438.0434664059559" y="687.6166913746084"/>
      <point x="483" y="650" type="curve"/>
      <point x="509.95861997007864" y="687.184303407005"/>
      <point x="386" y="760.0"/>
    </contour>
    <contour>
      <point x="300.0" y="200.0" type="curve" smooth="yes"/>
      <point x="463.2924187725632" y="200.0"/>
      <point x="557.0" y="299.09293680297395"/>
      <point x="557.0" y="472.0" type="curve" smooth="yes"/>
      <point x="557.0" y="480.0" type="line" smooth="yes"/>
      <point x="557.0" y="661.0600706713781"/>
      <point x="466.0" y="760.0"/>
      <point x="300.0" y="760.0" type="curve" smooth="yes"/>
      <point x="273.0" y="760.0"/>
      <point x="264.0" y="744.0"/>
      <point x="264.0" y="730.0" type="curve"/>
      <point x="417.47169811320754" y="730.0"/>
      <point x="515.0" y="653.0"/>
      <point x="515.0" y="493.0" type="curve" smooth="yes"/>
      <point x="515.0" y="462.0" type="line" smooth="yes"/>
      <point x="515" y="324"/>
      <point x="433.0" y="244.0"/>
      <point x="300.0" y="244.0" type="curve" smooth="yes"/>
      <point x="223.0" y="244.0"/>
      <point x="162.42045041964698" y="272.1496246502942"/>
      <point x="117.0" y="310.0" type="curve"/>
      <point x="89.53181686230977" y="273.06002957345106"/>
      <point x="213.71502590673575" y="200.0"/>
    </contour>
  </outline>
</glyph>
<glyph name="degree" format="1">
  <advance width="600"/>
  <unicode hex="00B0"/>
  <outline>
    <contour>
      <point x="316" y="413" type="curve"/>
      <point x="238" y="413.0"/>
      <point x="192" y="460.0"/>
      <point x="192" y="534" type="curve" smooth="yes"/>
      <point x="192" y="540.0" type="line" smooth="yes"/>
      <point x="192" y="617"/>
      <point x="232.0" y="663.0"/>
      <point x="307" y="663" type="curve" smooth="yes"/>
      <point x="340" y="663"/>
      <point x="362" y="657"/>
      <point x="392" y="638" type="curve"/>
      <point x="405.0" y="674.0"/>
      <point x="354.0" y="710.0"/>
      <point x="302.0" y="710.0" type="curve"/>
      <point x="206.0" y="710.0"/>
      <point x="140.0" y="640.0"/>
      <point x="140.0" y="542.0" type="curve" smooth="yes"/>
      <point x="140.0" y="536.0" type="line" smooth="yes"/>
      <point x="140.0" y="440"/>
      <point x="205.0" y="376.0"/>
      <point x="296.0" y="376.0" type="curve"/>
      <point x="306.0" y="376.0"/>
      <point x="316.0" y="396.0"/>
    </contour>
    <contour>
      <point x="282.0" y="673.0" type="curve"/>
      <point x="360.0" y="673.0"/>
      <point x="406.0" y="626.0"/>
      <point x="406.0" y="552.0" type="curve" smooth="yes"/>
      <point x="406.0" y="546.0" type="line" smooth="yes"/>
      <point x="406.0" y="469.0"/>
      <point x="366.0" y="423.0"/>
      <point x="291.0" y="423.0" type="curve" smooth="yes"/>
      <point x="258.0" y="423.0"/>
      <point x="236.0" y="429.0"/>
      <point x="206.0" y="448.0" type="curve"/>
      <point x="193.0" y="412.0"/>
      <point x="244.0" y="376.0"/>
      <point x="296.0" y="376.0" type="curve"/>
      <point x="392.0" y="376.0"/>
      <point x="458.0" y="446.0"/>
      <point x="458.0" y="544.0" type="curve" smooth="yes"/>
      <point x="458.0" y="550.0" type="line" smooth="yes"/>
      <point x="458.0" y="646.0"/>
      <point x="393.0" y="710.0"/>
      <point x="302.0" y="710.0" type="curve"/>
      <point x="292.0" y="710.0"/>
      <point x="282.0" y="690.0"/>
    </contour>
  </outline>
</glyph>
<glyph name="paragraph" format="1">
  <advance width="600"/>
  <unicode hex="00B6"/>
  <outline>
    <contour>
      <point x="360" y="-157" type="curve"/>
      <point x="360" y="604" type="line"/>
      <point x="360" y="653"/>
      <point x="342.0" y="667.0"/>
      <point x="320" y="667" type="curve" smooth="yes"/>
      <point x="317.0" y="667.0"/>
      <point x="313" y="667.0"/>
      <point x="310" y="667" type="curve"/>
      <point x="310" y="-100" type="line" smooth="yes"/>
      <point x="310" y="-136"/>
      <point x="322" y="-160.0"/>
      <point x="348" y="-160" type="curve" smooth="yes"/>
      <point x="352" y="-160.0"/>
      <point x="356" y="-159"/>
    </contour>
    <contour>
      <point x="517" y="-157" type="curve"/>
      <point x="511" y="-122"/>
      <point x="510" y="-87"/>
      <point x="510" y="-50" type="curve" smooth="yes"/>
      <point x="510" y="637" type="line" smooth="yes"/>
      <point x="510.0" y="655.0"/>
      <point x="492.0" y="660.0"/>
      <point x="470" y="660" type="curve" smooth="yes"/>
      <point x="467.0" y="660.0"/>
      <point x="463" y="660.0"/>
      <point x="460" y="660" type="curve"/>
      <point x="460" y="-100" type="line" smooth="yes"/>
      <point x="460.0" y="-133.0"/>
      <point x="472.0" y="-160.0"/>
      <point x="500" y="-160" type="curve" smooth="yes"/>
      <point x="506" y="-160"/>
      <point x="511" y="-159"/>
    </contour>
    <contour>
      <point x="354" y="710.0" type="line" smooth="yes"/>
      <point x="188.0" y="710.0"/>
      <point x="65.0" y="602.0"/>
      <point x="65" y="408" type="curve" smooth="yes"/>
      <point x="65" y="393" type="line" smooth="yes"/>
      <point x="65" y="252"/>
      <point x="150" y="164.0"/>
      <point x="312" y="164.0" type="curve" smooth="yes"/>
      <point x="327" y="164.0" type="line" smooth="yes"/>
      <point x="345" y="164"/>
      <point x="349.0" y="186"/>
      <point x="350" y="208" type="curve"/>
      <point x="332" y="208" type="line" smooth="yes"/>
      <point x="184.0" y="208.0"/>
      <point x="115" y="284"/>
      <point x="115.0" y="392" type="curve" smooth="yes"/>
      <point x="115.0" y="408" type="line" smooth="yes"/>
      <point x="115.0" y="555.0"/>
      <point x="200.0" y="660.0"/>
      <point x="353" y="660.0" type="curve" smooth="yes"/>
      <point x="442" y="660"/>
      <point x="495" y="647.0"/>
      <point x="547" y="598" type="curve"/>
      <point x="551" y="598" type="line"/>
      <point x="554" y="608"/>
      <point x="555" y="616"/>
      <point x="555" y="624" type="curve" smooth="yes"/>
      <point x="555" y="639"/>
      <point x="554" y="648"/>
      <point x="545" y="657" type="curve" smooth="yes"/>
      <point x="514" y="688"/>
      <point x="454" y="710.0"/>
      <point x="360" y="710" type="curve" smooth="yes"/>
    </contour>
  </outline>
</glyph>
<glyph name="ordmasculine" format="1">
  <advance width="600"/>
  <unicode hex="00BA"/>
  <outline>
    <contour>
      <point x="299.0" y="763.0" type="curve" smooth="yes"/>
      <point x="190.1957671957672" y="763.0"/>
      <point x="105" y="665.4686192468619"/>
      <point x="105" y="504" type="curve" smooth="yes"/>
      <point x="105" y="496" type="line" smooth="yes"/>
      <point x="105" y="360.7038626609442"/>
      <point x="180.95767195767195" y="283.0"/>
      <point x="299.0" y="283" type="curve" smooth="yes"/>
      <point x="319" y="283"/>
      <point x="323" y="301"/>
      <point x="323" y="313" type="curve"/>
      <point x="188.2240076804371" y="329.46118990162597"/>
      <point x="155" y="419.4878048780488"/>
      <point x="155" y="498" type="curve" smooth="yes"/>
      <point x="155" y="504" type="line" smooth="yes"/>
      <point x="155" y="615.6878306878307"/>
      <point x="201.5845070422535" y="713.0"/>
      <point x="302" y="713" type="curve" smooth="yes"/>
      <point x="340" y="713.0"/>
      <point x="373" y="703"/>
      <point x="405" y="689" type="curve"/>
      <point x="419.0" y="703.0"/>
      <point x="379.0" y="763.0"/>
    </contour>
    <contour>
      <point x="299.0" y="283" type="curve" smooth="yes"/>
      <point x="417.9651741293532" y="283.0"/>
      <point x="495" y="360.79661016949154"/>
      <point x="495" y="499" type="curve" smooth="yes"/>
      <point x="495" y="507" type="line" smooth="yes"/>
      <point x="495" y="658.8644067796611"/>
      <point x="412.11442786069654" y="763.0"/>
      <point x="299.0" y="763.0" type="curve" smooth="yes"/>
      <point x="279.0" y="763.0"/>
      <point x="274.0" y="745.0"/>
      <point x="274" y="727" type="curve"/>
      <point x="390.72066164800367" y="716.3006060155997"/>
      <point x="445" y="621.4950495049505"/>
      <point x="445" y="505" type="curve" smooth="yes"/>
      <point x="445" y="499" type="line" smooth="yes"/>
      <point x="445" y="404.39784946236557"/>
      <point x="398.5584415584416" y="333.0"/>
      <point x="296" y="333" type="curve" smooth="yes"/>
      <point x="264" y="333.0"/>
      <point x="237" y="345"/>
      <point x="209" y="358" type="curve"/>
      <point x="194" y="343"/>
      <point x="231" y="283.0"/>
    </contour>
  </outline>
</glyph>
<glyph name="onehalf" format="1">
  <advance width="600"/>
  <unicode hex="00BD"/>
  <outline>
    <contour>
      <point x="200" y="391" type="curve"/>
      <point x="200.0" y="490"/>
      <point x="200.0" y="589"/>
      <point x="200" y="687" type="curve" smooth="yes"/>
      <point x="200.0" y="705"/>
      <point x="182.0" y="710.0"/>
      <point x="160" y="710" type="curve" smooth="yes"/>
      <point x="150" y="710" type="line"/>
      <point x="150.0" y="629"/>
      <point x="150.0" y="546.0"/>
      <point x="150" y="464" type="curve" smooth="yes"/>
      <point x="150.0" y="416.0"/>
      <point x="163.0" y="391.0"/>
    </contour>
    <contour>
      <point x="39" y="416" type="line"/>
      <point x="37.0" y="412"/>
      <point x="36" y="407"/>
      <point x="36.0" y="400" type="curve" smooth="yes"/>
      <point x="36.0" y="381.14285714285717"/>
      <point x="43.0" y="366.0"/>
      <point x="65" y="366.0" type="curve" smooth="yes"/>
      <point x="294" y="366" type="line"/>
      <point x="294.0" y="368"/>
      <point x="294" y="372"/>
      <point x="294" y="374" type="curve" smooth="yes"/>
      <point x="294.0" y="397.0"/>
      <point x="250" y="416"/>
      <point x="190" y="416" type="curve" smooth="yes"/>
    </contour>
    <contour>
      <point x="52" y="540" type="curve" smooth="yes"/>
      <point x="78.0" y="540.0"/>
      <point x="165" y="641.0"/>
      <point x="165" y="686" type="curve" smooth="yes"/>
      <point x="165" y="700"/>
      <point x="162.0" y="710.0"/>
      <point x="153" y="710" type="curve"/>
      <point x="137" y="710" type="line"/>
      <point x="110" y="655"/>
      <point x="76" y="615"/>
      <point x="34" y="586" type="curve"/>
      <point x="34" y="581" type="line" smooth="yes"/>
      <point x="34" y="548"/>
      <point x="45" y="540"/>
    </contour>
    <contour>
      <point x="432" y="292.0" type="curve" smooth="yes"/>
      <point x="500.0" y="292.0"/>
      <point x="515.0" y="272.0"/>
      <point x="515" y="233" type="curve"/>
      <point x="547.0" y="240.0"/>
      <point x="556.0" y="248"/>
      <point x="556" y="259" type="curve" smooth="yes"/>
      <point x="556.0" y="296"/>
      <point x="528" y="342.0"/>
      <point x="433" y="342.0" type="curve" smooth="yes"/>
      <point x="376.0" y="342.0"/>
      <point x="336" y="326"/>
      <point x="318" y="308" type="curve" smooth="yes"/>
      <point x="310.0" y="300.0"/>
      <point x="307.0" y="288"/>
      <point x="307" y="272" type="curve" smooth="yes"/>
      <point x="307.0" y="265"/>
      <point x="308.0" y="258"/>
      <point x="310" y="251" type="curve"/>
      <point x="312" y="251" type="line"/>
      <point x="350.0" y="280.0"/>
      <point x="388" y="292"/>
    </contour>
    <contour>
      <point x="492" y="295" type="curve"/>
      <point x="502" y="281"/>
      <point x="506" y="268"/>
      <point x="506.0" y="251" type="curve" smooth="yes"/>
      <point x="506.0" y="226"/>
      <point x="497" y="212"/>
      <point x="425" y="182" type="curve" smooth="yes"/>
      <point x="313" y="136"/>
      <point x="295.0" y="100"/>
      <point x="295" y="45" type="curve" smooth="yes"/>
      <point x="295.0" y="25"/>
      <point x="301.0" y="27.0"/>
      <point x="342" y="27" type="curve"/>
      <point x="342" y="88"/>
      <point x="349" y="99"/>
      <point x="443" y="141" type="curve" smooth="yes"/>
      <point x="530" y="178"/>
      <point x="556.0" y="202"/>
      <point x="556" y="257" type="curve" smooth="yes"/>
      <point x="556" y="259" type="line" smooth="yes"/>
      <point x="556" y="282"/>
      <point x="538.0" y="295.0"/>
    </contour>
    <contour>
      <point x="557" y="0" type="line"/>
      <point x="559" y="6"/>
      <point x="560.0" y="11.0"/>
      <point x="560" y="17" type="curve" smooth="yes"/>
      <point x="560.0" y="42"/>
      <point x="545.0" y="50.0"/>
      <point x="498" y="50" type="curve" smooth="yes"/>
      <point x="462" y="50" type="line" smooth="yes"/>
      <point x="411" y="50"/>
      <point x="352" y="48"/>
      <point x="295" y="45" type="curve"/>
      <point x="295.0" y="44"/>
      <point x="295.0" y="43"/>
      <point x="295" y="42" type="curve" smooth="yes"/>
      <point x="295.0" y="20"/>
      <point x="311" y="0"/>
      <point x="332" y="0" type="curve" smooth="yes"/>
    </contour>
    <component base="fraction"/>
  </outline>
</glyph>
<glyph name="threequarters" format="1">
  <advance width="600"/>
  <unicode hex="00BE"/>
  <outline>
    <contour>
      <point x="187" y="661.0" type="curve" smooth="yes"/>
      <point x="237.0" y="661.0"/>
      <point x="265.0" y="641"/>
      <point x="265" y="614" type="curve" smooth="yes"/>
      <point x="265.0" y="606"/>
      <point x="264.0" y="601"/>
      <point x="263" y="596" type="curve"/>
      <point x="284" y="597"/>
      <point x="317.0" y="612.0"/>
      <point x="317" y="618" type="curve" smooth="yes"/>
      <point x="317" y="625" type="line" smooth="yes"/>
      <point x="317" y="672.0"/>
      <point x="268.0" y="711.0"/>
      <point x="186" y="711.0" type="curve"/>
      <point x="139.0" y="711.0"/>
      <point x="101" y="696"/>
      <point x="82" y="677" type="curve" smooth="yes"/>
      <point x="71" y="666"/>
      <point x="67.0" y="656"/>
      <point x="67" y="640" type="curve" smooth="yes"/>
      <point x="67.0" y="629"/>
      <point x="68.0" y="623"/>
      <point x="72" y="613" type="curve"/>
      <point x="74" y="613" type="line"/>
      <point x="109" y="648"/>
      <point x="141.0" y="661.0"/>
    </contour>
    <contour>
      <point x="146" y="526" type="curve" smooth="yes"/>
      <point x="265.0" y="526.0"/>
      <point x="317.0" y="572.0"/>
      <point x="317" y="618" type="curve" smooth="yes"/>
      <point x="317.0" y="642"/>
      <point x="285.0" y="660.0"/>
      <point x="262" y="660" type="curve"/>
      <point x="266.0" y="652"/>
      <point x="267.0" y="646.0"/>
      <point x="267.0" y="630" type="curve" smooth="yes"/>
      <point x="267.0" y="584"/>
      <point x="214.0" y="561.0"/>
      <point x="126" y="561" type="curve"/>
      <point x="124" y="555"/>
      <point x="123.0" y="550"/>
      <point x="123" y="541" type="curve" smooth="yes"/>
      <point x="123" y="529"/>
      <point x="141" y="526"/>
    </contour>
    <contour>
      <point x="153" y="511.0" type="curve" smooth="yes"/>
      <point x="237.0" y="511.0"/>
      <point x="272.0" y="490"/>
      <point x="272.0" y="456" type="curve" smooth="yes"/>
      <point x="272.0" y="446.0"/>
      <point x="271.0" y="439"/>
      <point x="268" y="431" type="curve"/>
      <point x="306" y="431.0"/>
      <point x="322.0" y="445.0"/>
      <point x="322" y="459" type="curve" smooth="yes"/>
      <point x="322.0" y="535"/>
      <point x="238.0" y="551.0"/>
      <point x="129" y="551" type="curve"/>
      <point x="128.0" y="545"/>
      <point x="123.0" y="545"/>
      <point x="123" y="541" type="curve" smooth="yes"/>
      <point x="123.0" y="527.0"/>
      <point x="127" y="511"/>
    </contour>
    <contour>
      <point x="182" y="407.0" type="curve" smooth="yes"/>
      <point x="134" y="407.0"/>
      <point x="99" y="425"/>
      <point x="69" y="454" type="curve"/>
      <point x="67" y="454" type="line"/>
      <point x="60.0" y="443"/>
      <point x="58.0" y="433"/>
      <point x="58.0" y="420" type="curve" smooth="yes"/>
      <point x="58.0" y="406"/>
      <point x="60" y="400"/>
      <point x="68" y="392" type="curve" smooth="yes"/>
      <point x="85" y="376"/>
      <point x="131" y="357.0"/>
      <point x="182" y="357" type="curve" smooth="yes"/>
      <point x="273.0" y="357.0"/>
      <point x="322.0" y="406.0"/>
      <point x="322" y="451" type="curve" smooth="yes"/>
      <point x="322" y="459" type="line" smooth="yes"/>
      <point x="322" y="479"/>
      <point x="295.0" y="488.0"/>
      <point x="270" y="488" type="curve"/>
      <point x="271" y="483"/>
      <point x="272" y="477"/>
      <point x="272.0" y="469" type="curve" smooth="yes"/>
      <point x="272.0" y="431.0"/>
      <point x="240.0" y="407.0"/>
    </contour>
    <contour>
      <point x="302" y="115" type="curve"/>
      <point x="325" y="205"/>
      <point x="361" y="269"/>
      <point x="439" y="332" type="curve"/>
      <point x="439" y="335" type="line"/>
      <point x="426.0" y="340.0"/>
      <point x="421" y="342.0"/>
      <point x="402" y="342.0" type="curve" smooth="yes"/>
      <point x="381" y="342.0"/>
      <point x="372" y="335"/>
      <point x="360" y="323" type="curve" smooth="yes"/>
      <point x="315" y="278"/>
      <point x="264.0" y="185.0"/>
      <point x="264" y="127" type="curve" smooth="yes"/>
      <point x="264.0" y="121.0"/>
      <point x="277" y="115.0"/>
    </contour>
    <contour>
      <point x="557" y="88" type="line"/>
      <point x="559.0" y="94"/>
      <point x="560.0" y="101"/>
      <point x="560" y="107" type="curve" smooth="yes"/>
      <point x="560.0" y="122"/>
      <point x="553.0" y="135.0"/>
      <point x="527" y="135" type="curve" smooth="yes"/>
      <point x="435" y="135" type="line" smooth="yes"/>
      <point x="336" y="135"/>
      <point x="313" y="134"/>
      <point x="264" y="127" type="curve"/>
      <point x="264" y="123" type="line" smooth="yes"/>
      <point x="264.0" y="110"/>
      <point x="278" y="88"/>
      <point x="295" y="88" type="curve" smooth="yes"/>
    </contour>
    <contour>
      <point x="500" y="-3" type="curve"/>
      <point x="495" y="16"/>
      <point x="493" y="32"/>
      <point x="493" y="52" type="curve" smooth="yes"/>
      <point x="493" y="200" type="line" smooth="yes"/>
      <point x="493.0" y="219.0"/>
      <point x="476" y="237.0"/>
      <point x="461" y="237" type="curve" smooth="yes"/>
      <point x="459" y="237" type="line"/>
      <point x="446.0" y="193.0"/>
      <point x="443.0" y="160.0"/>
      <point x="443" y="131" type="curve" smooth="yes"/>
      <point x="443" y="31" type="line" smooth="yes"/>
      <point x="443" y="4"/>
      <point x="461.0" y="-6.0"/>
      <point x="485" y="-6" type="curve" smooth="yes"/>
      <point x="490.0" y="-6.0"/>
      <point x="495" y="-5.0"/>
    </contour>
    <component base="fraction"/>
  </outline>
</glyph>
<glyph name="AE" format="1">
  <advance width="600"/>
  <unicode hex="00C6"/>
  <outline>
    <contour>
      <point x="80" y="-7" type="curve"/>
      <point x="80" y="289.0"/>
      <point x="147" y="499"/>
      <point x="268" y="672" type="curve"/>
      <point x="278" y="687"/>
      <point x="257.0" y="700"/>
      <point x="249" y="700" type="curve"/>
      <point x="228" y="700" type="line"/>
      <point x="89" y="506"/>
      <point x="30.0" y="294.0"/>
      <point x="30" y="13" type="curve"/>
      <point x="30.0" y="-5"/>
      <point x="48" y="-10"/>
      <point x="60" y="-10.0" type="curve" smooth="yes"/>
      <point x="68.0" y="-10.0"/>
      <point x="74" y="-9.0"/>
    </contour>
    <contour>
      <point x="410" y="3" type="curve"/>
      <point x="410" y="290"/>
      <point x="390.0" y="435.0"/>
      <point x="346" y="607" type="curve"/>
      <point x="324.0" y="678.5"/>
      <point x="311" y="700.0"/>
      <point x="249" y="700" type="curve"/>
      <point x="238.0" y="700.0"/>
      <point x="232.0" y="681.0"/>
      <point x="232" y="650" type="curve"/>
      <point x="256" y="650" type="line"/>
      <point x="269.0" y="650.0"/>
      <point x="281" y="646"/>
      <point x="294" y="598" type="curve"/>
      <point x="343" y="423"/>
      <point x="360.0" y="284.0"/>
      <point x="360.0" y="30" type="curve" smooth="yes"/>
      <point x="360" y="8"/>
      <point x="378.0" y="0.0"/>
      <point x="394" y="0.0" type="curve" smooth="yes"/>
      <point x="400" y="0.0"/>
      <point x="405" y="1.0"/>
    </contour>
    <contour>
      <point x="10" y="270" type="line"/>
      <point x="10" y="260" type="line"/>
      <point x="10" y="238"/>
      <point x="15" y="220"/>
      <point x="33" y="220" type="curve"/>
      <point x="370" y="220" type="line"/>
      <point x="370" y="226" type="line"/>
      <point x="370" y="258.0"/>
      <point x="345.6666666666667" y="270.0"/>
      <point x="297" y="270" type="curve"/>
    </contour>
    <contour>
      <point x="248" y="700" type="line"/>
      <point x="248" y="690" type="line"/>
      <point x="248.0" y="668.0"/>
      <point x="253.0" y="650.0"/>
      <point x="271" y="650" type="curve" smooth="yes"/>
      <point x="577" y="650" type="line"/>
      <point x="579.0" y="655.0"/>
      <point x="580.0" y="661.0"/>
      <point x="580.0" y="667" type="curve" smooth="yes"/>
      <point x="580.0" y="676.0"/>
      <point x="578" y="687"/>
      <point x="570" y="695" type="curve" smooth="yes"/>
      <point x="567" y="698"/>
      <point x="563" y="700"/>
      <point x="558" y="700" type="curve"/>
    </contour>
    <contour>
      <point x="379" y="320" type="line"/>
      <point x="379" y="304" type="line"/>
      <point x="379.0" y="282"/>
      <point x="385.0" y="270.0"/>
      <point x="395" y="270" type="curve" smooth="yes"/>
      <point x="557" y="270" type="line"/>
      <point x="559.0" y="274"/>
      <point x="560.0" y="279.0"/>
      <point x="560.0" y="284" type="curve" smooth="yes"/>
      <point x="560.0" y="305.0"/>
      <point x="553.0" y="320.0"/>
      <point x="537" y="320" type="curve"/>
    </contour>
    <contour>
      <point x="374" y="50" type="line"/>
      <point x="374" y="40" type="line" smooth="yes"/>
      <point x="374" y="21"/>
      <point x="383.0" y="0.0"/>
      <point x="394" y="0" type="curve" smooth="yes"/>
      <point x="580" y="0" type="line"/>
      <point x="580.0" y="3"/>
      <point x="580.0" y="7"/>
      <point x="580" y="10" type="curve" smooth="yes"/>
      <point x="580.0" y="37.0"/>
      <point x="572.0" y="50.0"/>
      <point x="557" y="50" type="curve" smooth="yes"/>
    </contour>
    <contour>
      <point x="350" y="711" type="move" name="top"/>
    </contour>
  </outline>
</glyph>
<glyph name="Thorn" format="1">
  <advance width="600"/>
  <unicode hex="00DE"/>
  <outline>
    <contour>
      <point x="73.0" y="707.0" type="curve"/>
      <point x="79.0" y="672.0"/>
      <point x="80.0" y="637.0"/>
      <point x="80.0" y="600.0" type="curve" smooth="yes"/>
      <point x="80.0" y="13.0" type="line" smooth="yes"/>
      <point x="80.0" y="-5.0"/>
      <point x="98.0" y="-10.0"/>
      <point x="120.0" y="-10.0" type="curve" smooth="yes"/>
      <point x="123.0" y="-10.0"/>
      <point x="127" y="-10.0"/>
      <point x="130.0" y="-10.0" type="curve"/>
      <point x="130.0" y="650.0" type="line" smooth="yes"/>
      <point x="130.0" y="672.0"/>
      <point x="128.0" y="690.0"/>
      <point x="116.0" y="702.0" type="curve" smooth="yes"/>
      <point x="111.0" y="707.0"/>
      <point x="104.0" y="710.0"/>
      <point x="90.0" y="710.0" type="curve" smooth="yes"/>
      <point x="84.0" y="710.0"/>
      <point x="79.0" y="709.0"/>
    </contour>
    <contour>
      <point x="93" y="586" type="curve"/>
      <point x="93" y="583"/>
      <point x="93" y="579"/>
      <point x="93" y="576" type="curve"/>
      <point x="93.0" y="560"/>
      <point x="96" y="552"/>
      <point x="104" y="544" type="curve" smooth="yes"/>
      <point x="108" y="540"/>
      <point x="114" y="539"/>
      <point x="118" y="539" type="curve" smooth="yes"/>
      <point x="125" y="539"/>
      <point x="134" y="540"/>
      <point x="145" y="542" type="curve" smooth="yes"/>
      <point x="183" y="548.0"/>
      <point x="239" y="555.0"/>
      <point x="278" y="555" type="curve" smooth="yes"/>
      <point x="370.0" y="555.0"/>
      <point x="412.0" y="538.0"/>
      <point x="471" y="482" type="curve"/>
      <point x="518.0" y="529.0"/>
      <point x="394" y="605.0"/>
      <point x="287" y="605" type="curve" smooth="yes"/>
      <point x="227" y="605.0"/>
      <point x="172" y="599.0"/>
    </contour>
    <contour>
      <point x="525" y="375" type="curve" smooth="yes"/>
      <point x="525" y="413" type="line" smooth="yes"/>
      <point x="525" y="525.0"/>
      <point x="426" y="605.0"/>
      <point x="287" y="605" type="curve"/>
      <point x="266.0" y="605.0"/>
      <point x="259.0" y="594.0"/>
      <point x="259" y="580" type="curve"/>
      <point x="382" y="580.0"/>
      <point x="475" y="525.0"/>
      <point x="475" y="403" type="curve" smooth="yes"/>
      <point x="475" y="385" type="line" smooth="yes"/>
      <point x="475.0" y="249.0"/>
      <point x="351.0" y="160.0"/>
      <point x="169" y="160" type="curve" smooth="yes"/>
      <point x="126" y="160.0"/>
      <point x="116" y="160.0"/>
      <point x="108" y="160" type="curve"/>
      <point x="104.0" y="157.0"/>
      <point x="102.0" y="154.0"/>
      <point x="102" y="149" type="curve" smooth="yes"/>
      <point x="102.0" y="129.0"/>
      <point x="143.0" y="110.0"/>
      <point x="171" y="110" type="curve" smooth="yes"/>
      <point x="175" y="110" type="line" smooth="yes"/>
      <point x="380.0" y="110.0"/>
      <point x="525.0" y="217"/>
    </contour>
  </outline>
</glyph>
<glyph name="ae" format="1">
  <advance width="600"/>
  <unicode hex="00E6"/>
  <outline>
    <contour>
      <point x="187" y="536" type="curve" smooth="yes"/>
      <point x="139.83458646616543" y="536.0"/>
      <point x="80.37337987543879" y="523.3733798754388"/>
      <point x="64" y="507" type="curve" smooth="yes"/>
      <point x="56" y="499"/>
      <point x="53" y="490"/>
      <point x="53" y="475" type="curve" smooth="yes"/>
      <point x="53" y="469"/>
      <point x="54" y="464"/>
      <point x="56" y="459" type="curve"/>
      <point x="60" y="459" type="line"/>
      <point x="89.93176991509806" y="472.0951493378554"/>
      <point x="134.72093023255815" y="486.0"/>
      <point x="179" y="486" type="curve" smooth="yes"/>
      <point x="250.52941176470588" y="486.0"/>
      <point x="274.0" y="435.0"/>
      <point x="274" y="328" type="curve" smooth="yes"/>
      <point x="274" y="121" type="line"/>
      <point x="295.0" y="138.0"/>
      <point x="308.0" y="169.0"/>
      <point x="308" y="199" type="curve"/>
      <point x="308.0" y="392" type="line" smooth="yes"/>
      <point x="308.0" y="482.7012987012987"/>
      <point x="261.1261261261261" y="536.0"/>
    </contour>
    <contour>
      <point x="84" y="130" type="curve" smooth="yes"/>
      <point x="84.0" y="133" type="line" smooth="yes"/>
      <point x="84.0" y="183.0"/>
      <point x="95.0" y="212.0"/>
      <point x="136" y="247" type="curve"/>
      <point x="68.0" y="254.0"/>
      <point x="34.0" y="180.0"/>
      <point x="34.0" y="134" type="curve" smooth="yes"/>
      <point x="34" y="129" type="line" smooth="yes"/>
      <point x="34" y="41.0"/>
      <point x="74" y="-10"/>
      <point x="142" y="-10.0" type="curve" smooth="yes"/>
      <point x="234.0" y="-10.0"/>
      <point x="310.0" y="76.0"/>
      <point x="310" y="145" type="curve" smooth="yes"/>
      <point x="310" y="156"/>
      <point x="303.0" y="157.0"/>
      <point x="282" y="161" type="curve"/>
      <point x="247.0" y="74.0"/>
      <point x="204.0" y="41.0"/>
      <point x="144" y="41" type="curve" smooth="yes"/>
      <point x="141" y="41.0" type="line" smooth="yes"/>
      <point x="105.0" y="41"/>
      <point x="84" y="70.0"/>
    </contour>
    <contour>
      <point x="287" y="273" type="curve" smooth="yes"/>
      <point x="275.0" y="280.0"/>
      <point x="248.0" y="292.0"/>
      <point x="185" y="292.0" type="curve" smooth="yes"/>
      <point x="90.0" y="292.0"/>
      <point x="34.0" y="228.0"/>
      <point x="34" y="134" type="curve" smooth="yes"/>
      <point x="34.0" y="122.0"/>
      <point x="39.0" y="119.0"/>
      <point x="61" y="119" type="curve"/>
      <point x="81.0" y="200.0"/>
      <point x="107.0" y="242.0"/>
      <point x="188" y="242.0" type="curve" smooth="yes"/>
      <point x="229.0" y="242.0"/>
      <point x="256.0" y="239.0"/>
      <point x="296" y="230" type="curve"/>
      <point x="297.0" y="251"/>
      <point x="298.0" y="267.0"/>
    </contour>
    <contour>
      <point x="432" y="203" type="line" smooth="yes"/>
      <point x="516.0" y="203"/>
      <point x="565.0" y="264.0"/>
      <point x="565" y="360" type="curve" smooth="yes"/>
      <point x="565" y="373" type="line" smooth="yes"/>
      <point x="565" y="467.0"/>
      <point x="513" y="536.0"/>
      <point x="434" y="536" type="curve" smooth="yes"/>
      <point x="418.0" y="536.0"/>
      <point x="413.0" y="526.0"/>
      <point x="413" y="505" type="curve"/>
      <point x="488" y="496"/>
      <point x="515" y="434"/>
      <point x="515" y="370" type="curve" smooth="yes"/>
      <point x="515" y="363" type="line" smooth="yes"/>
      <point x="515.0" y="283.0"/>
      <point x="485.0" y="250.0"/>
      <point x="418" y="250" type="curve" smooth="yes"/>
      <point x="373.0" y="250.0"/>
      <point x="349.0" y="254.0"/>
      <point x="304" y="269" type="curve"/>
      <point x="304.0" y="246.0"/>
      <point x="304" y="238"/>
      <point x="314" y="228" type="curve" smooth="yes"/>
      <point x="324" y="218"/>
      <point x="356" y="203"/>
      <point x="420" y="203.0" type="curve" smooth="yes"/>
    </contour>
    <contour>
      <point x="432" y="489.0" type="curve" smooth="yes"/>
      <point x="468" y="489.0"/>
      <point x="481" y="479"/>
      <point x="501" y="462" type="curve"/>
      <point x="519.0" y="489.0"/>
      <point x="483" y="536.0"/>
      <point x="434" y="536" type="curve"/>
      <point x="349.0" y="536.0"/>
      <point x="285.0" y="447.92233009708735"/>
      <point x="285.0" y="320" type="curve" smooth="yes"/>
      <point x="285" y="206" type="line" smooth="yes"/>
      <point x="285" y="77.0"/>
      <point x="342.0" y="-10.0"/>
      <point x="443" y="-10" type="curve" smooth="yes"/>
      <point x="452.0" y="-10.0"/>
      <point x="461.0" y="9.0"/>
      <point x="461" y="23" type="curve"/>
      <point x="380.0" y="23"/>
      <point x="325.0" y="97.0"/>
      <point x="325" y="212" type="curve" smooth="yes"/>
      <point x="325.0" y="300" type="line" smooth="yes"/>
      <point x="325.0" y="417.0"/>
      <point x="363.0" y="489.0"/>
    </contour>
    <contour>
      <point x="554" y="21" type="curve" smooth="yes"/>
      <point x="562" y="29"/>
      <point x="566.0" y="42"/>
      <point x="566.0" y="56" type="curve" smooth="yes"/>
      <point x="566.0" y="63"/>
      <point x="565.0" y="70"/>
      <point x="563" y="75" type="curve"/>
      <point x="559" y="75" type="line"/>
      <point x="531.0" y="49.0"/>
      <point x="502.0" y="37.0"/>
      <point x="444" y="37" type="curve" smooth="yes"/>
      <point x="404" y="37"/>
      <point x="377" y="46"/>
      <point x="347" y="77" type="curve"/>
      <point x="334.0" y="41.0"/>
      <point x="369.0" y="-10.0"/>
      <point x="443" y="-10" type="curve" smooth="yes"/>
      <point x="504.0" y="-10.0"/>
      <point x="536" y="3"/>
    </contour>
    <contour>
      <point x="300" y="537" type="move" name="top"/>
    </contour>
  </outline>
</glyph>
<glyph name="oslash" format="1">
  <advance width="600"/>
  <unicode hex="00F8"/>
  <outline>
    <contour>
      <point x="436" y="584.0" type="curve"/>
      <point x="424" y="588.0"/>
      <point x="420" y="589.0"/>
      <point x="410" y="589.0" type="curve" smooth="yes"/>
      <point x="393" y="589.0"/>
      <point x="384" y="587.0"/>
      <point x="379" y="556.0" type="curve" smooth="yes"/>
      <point x="334" y="320.0"/>
      <point x="264" y="169.0"/>
      <point x="180" y="41.0" type="curve"/>
      <point x="183" y="36.0"/>
      <point x="190" y="32.0"/>
      <point x="197" y="32.0" type="curve" smooth="yes"/>
      <point x="211.0" y="32.0"/>
      <point x="220" y="33"/>
      <point x="230" y="47" type="curve" smooth="yes"/>
      <point x="268.0" y="107"/>
      <point x="358" y="237.0"/>
    </contour>
    <contour>
      <point x="170" y="31" type="curve"/>
      <point x="155" y="11"/>
      <point x="128" y="-20.0"/>
      <point x="88" y="-49.0" type="curve"/>
      <point x="95" y="-57.0"/>
      <point x="104" y="-62.0"/>
      <point x="123" y="-62.0" type="curve" smooth="yes"/>
      <point x="135" y="-62.0"/>
      <point x="142" y="-59"/>
      <point x="148" y="-54" type="curve"/>
      <point x="177.0" y="-28.0"/>
      <point x="191" y="-12.0"/>
      <point x="210" y="18.0" type="curve"/>
      <point x="188" y="35.0"/>
      <point x="180" y="45"/>
    </contour>
    <component base="o"/>
    <contour>
      <point x="300" y="547" type="move" name="top"/>
    </contour>
  </outline>
</glyph>
<glyph name="dcroat" format="1">
  <advance width="600"/>
  <unicode hex="0111"/>
  <outline>
    <contour>
      <point x="195" y="658" type="line"/>
      <point x="195.0" y="655"/>
      <point x="195.0" y="651"/>
      <point x="195" y="648" type="curve" smooth="yes"/>
      <point x="195.0" y="626.0"/>
      <point x="199.66666666666666" y="608.0"/>
      <point x="218" y="608" type="curve" smooth="yes"/>
      <point x="575" y="608" type="line"/>
      <point x="575.0" y="611"/>
      <point x="575.0" y="615"/>
      <point x="575" y="618" type="curve" smooth="yes"/>
      <point x="575.0" y="640.0"/>
      <point x="570.0" y="658.0"/>
      <point x="552" y="658" type="curve"/>
    </contour>
    <component base="d"/>
  </outline>
</glyph>
<glyph name="hbar" format="1">
  <advance width="600"/>
  <unicode hex="0127"/>
  <outline>
    <contour>
      <point x="25" y="658" type="line"/>
      <point x="25.0" y="655"/>
      <point x="25.0" y="651"/>
      <point x="25" y="648" type="curve" smooth="yes"/>
      <point x="25.0" y="626.0"/>
      <point x="29.666666666666664" y="608.0"/>
      <point x="48" y="608" type="curve" smooth="yes"/>
      <point x="405" y="608" type="line"/>
      <point x="405.0" y="611"/>
      <point x="405.0" y="615"/>
      <point x="405" y="618" type="curve" smooth="yes"/>
      <point x="405.0" y="640.0"/>
      <point x="400.0" y="658.0"/>
      <point x="382" y="658" type="curve"/>
    </contour>
    <component base="h"/>
  </outline>
</glyph>
<glyph name="IJ" format="1">
  <advance width="600"/>
  <unicode hex="0132"/>
  <outline>
    <contour>
      <point x="73" y="707" type="curve"/>
      <point x="79" y="672"/>
      <point x="80" y="637"/>
      <point x="80" y="600" type="curve" smooth="yes"/>
      <point x="80" y="13" type="line" smooth="yes"/>
      <point x="80" y="-5"/>
      <point x="98" y="-10"/>
      <point x="120" y="-10" type="curve" smooth="yes"/>
      <point x="123" y="-10"/>
      <point x="127" y="-10"/>
      <point x="130" y="-10" type="curve"/>
      <point x="130" y="650" type="line" smooth="yes"/>
      <point x="130" y="672"/>
      <point x="128" y="690"/>
      <point x="116" y="702" type="curve" smooth="yes"/>
      <point x="111" y="707"/>
      <point x="104" y="710"/>
      <point x="90" y="710" type="curve" smooth="yes"/>
      <point x="84" y="710"/>
      <point x="79" y="709"/>
    </contour>
    <contour>
      <point x="302" y="700" type="line"/>
      <point x="302" y="697"/>
      <point x="302" y="693"/>
      <point x="302" y="690" type="curve" smooth="yes"/>
      <point x="302.0" y="668.0"/>
      <point x="306.6666666666667" y="650.0"/>
      <point x="325" y="650" type="curve" smooth="yes"/>
      <point x="503" y="650" type="line"/>
      <point x="503" y="686"/>
      <point x="498" y="700"/>
      <point x="480" y="700" type="curve"/>
    </contour>
    <contour>
      <point x="527" y="20" type="curve" smooth="yes"/>
      <point x="527" y="677" type="line" smooth="yes"/>
      <point x="527" y="692"/>
      <point x="514" y="700"/>
      <point x="487" y="700" type="curve" smooth="yes"/>
      <point x="477" y="700" type="line"/>
      <point x="477" y="30" type="line" smooth="yes"/>
      <point x="477.0" y="-38.0"/>
      <point x="464.0" y="-92"/>
      <point x="435" y="-126" type="curve"/>
      <point x="474.0" y="-146.0"/>
      <point x="527.0" y="-72.0"/>
    </contour>
    <contour>
      <point x="382" y="-110" type="curve" smooth="yes"/>
      <point x="342.0" y="-110.0"/>
      <point x="318" y="-102"/>
      <point x="292" y="-84" type="curve"/>
      <point x="288" y="-84" type="line"/>
      <point x="286" y="-90"/>
      <point x="285.0" y="-97"/>
      <point x="285.0" y="-104" type="curve"/>
      <point x="285" y="-115"/>
      <point x="288" y="-128"/>
      <point x="296" y="-136" type="curve" smooth="yes"/>
      <point x="313" y="-153"/>
      <point x="354.0" y="-160"/>
      <point x="382" y="-160" type="curve" smooth="yes"/>
      <point x="387" y="-160" type="line" smooth="yes"/>
      <point x="482.0" y="-160.0"/>
      <point x="527.0" y="-82.0"/>
      <point x="527" y="20" type="curve"/>
      <point x="527" y="31"/>
      <point x="519" y="40"/>
      <point x="493" y="40" type="curve"/>
      <point x="493.0" y="-49"/>
      <point x="453" y="-110.0"/>
    </contour>
  </outline>
</glyph>
<glyph name="Lslash" format="1">
  <advance width="600"/>
  <unicode hex="0141"/>
  <outline>
    <contour>
      <point x="170" y="20" type="curve"/>
      <point x="170" y="650" type="line" smooth="yes"/>
      <point x="170" y="672"/>
      <point x="168" y="690"/>
      <point x="156" y="702" type="curve" smooth="yes"/>
      <point x="151" y="707"/>
      <point x="144" y="710"/>
      <point x="130" y="710" type="curve" smooth="yes"/>
      <point x="124" y="710"/>
      <point x="119" y="709"/>
      <point x="113" y="707" type="curve"/>
      <point x="119" y="672"/>
      <point x="120" y="637"/>
      <point x="120" y="600" type="curve" smooth="yes"/>
      <point x="120" y="43" type="line" smooth="yes"/>
      <point x="120" y="23"/>
      <point x="145" y="20"/>
    </contour>
    <contour>
      <point x="120" y="50" type="line"/>
      <point x="120" y="40" type="line" smooth="yes"/>
      <point x="120" y="21"/>
      <point x="134.0" y="0"/>
      <point x="150" y="0" type="curve" smooth="yes"/>
      <point x="530" y="0" type="line"/>
      <point x="530" y="3"/>
      <point x="530" y="7"/>
      <point x="530" y="10" type="curve" smooth="yes"/>
      <point x="530" y="37"/>
      <point x="522" y="50"/>
      <point x="507" y="50" type="curve" smooth="yes"/>
    </contour>
    <contour>
      <point x="385" y="483" type="curve"/>
      <point x="163" y="364" type="line" smooth="yes"/>
      <point x="151" y="358"/>
      <point x="136" y="358"/>
      <point x="125" y="352" type="curve" smooth="yes"/>
      <point x="59" y="317" type="line" smooth="yes"/>
      <point x="39" y="307"/>
      <point x="30" y="296"/>
      <point x="30.0" y="274" type="curve" smooth="yes"/>
      <point x="30.0" y="265.0"/>
      <point x="31" y="256"/>
      <point x="33" y="247" type="curve"/>
      <point x="124" y="297" type="line" smooth="yes"/>
      <point x="137" y="304"/>
      <point x="153" y="303"/>
      <point x="166" y="310" type="curve" smooth="yes"/>
      <point x="350" y="408" type="line" smooth="yes"/>
      <point x="380" y="424"/>
      <point x="388" y="435"/>
      <point x="388.0" y="461" type="curve" smooth="yes"/>
      <point x="388.0" y="468.0"/>
      <point x="387" y="476"/>
    </contour>
  </outline>
</glyph>
<glyph name="tbar" format="1">
  <advance width="600"/>
  <unicode hex="0167"/>
  <outline>
    <contour>
      <point x="75" y="325" type="line"/>
      <point x="75.0" y="322"/>
      <point x="75.0" y="318"/>
      <point x="75" y="315" type="curve" smooth="yes"/>
      <point x="75.0" y="291.0"/>
      <point x="81.0" y="275.0"/>
      <point x="98" y="275" type="curve" smooth="yes"/>
      <point x="525" y="275" type="line"/>
      <point x="525.0" y="278"/>
      <point x="525.0" y="282"/>
      <point x="525" y="285" type="curve" smooth="yes"/>
      <point x="525.0" y="307.0"/>
      <point x="520.0" y="325.0"/>
      <point x="502" y="325" type="curve"/>
    </contour>
    <component base="t"/>
  </outline>
</glyph>
<glyph name="Schwa" format="1">
  <advance width="600"/>
  <unicode hex="018F"/>
  <outline>
    <contour>
      <point x="282" y="40" type="curve" smooth="yes"/>
      <point x="214.11627906976744" y="40.0"/>
      <point x="190.81645655007998" y="53.572151283942425"/>
      <point x="143" y="88" type="curve"/>
      <point x="138" y="79"/>
      <point x="137" y="72"/>
      <point x="137" y="66" type="curve"/>
      <point x="137.0" y="36.0"/>
      <point x="189.65671641791045" y="-10.0"/>
      <point x="281" y="-10" type="curve"/>
      <point x="403.0" y="-10.0"/>
      <point x="525" y="81.20448179271705"/>
      <point x="525" y="360" type="curve" smooth="yes"/>
      <point x="525" y="378" type="line" smooth="yes"/>
      <point x="525" y="608.9302325581396"/>
      <point x="420.9990387493651" y="707.0000133507033"/>
      <point x="277" y="709" type="curve" smooth="yes"/>
      <point x="261" y="709"/>
      <point x="250" y="688"/>
      <point x="250" y="678" type="curve"/>
      <point x="397.0" y="678.0"/>
      <point x="477" y="574.5732899022802"/>
      <point x="477" y="384" type="curve" smooth="yes"/>
      <point x="477" y="367" type="line" smooth="yes"/>
      <point x="477" y="146.22292993630575"/>
      <point x="402.62790697674416" y="40.0"/>
    </contour>
    <contour>
      <point x="91" y="656" type="curve" smooth="yes"/>
      <point x="79" y="644"/>
      <point x="77" y="618"/>
      <point x="77" y="606" type="curve" smooth="yes"/>
      <point x="77" y="598"/>
      <point x="78" y="593"/>
      <point x="79" y="589" type="curve"/>
      <point x="83" y="589" type="line"/>
      <point x="131" y="637"/>
      <point x="179" y="659"/>
      <point x="273" y="659" type="curve" smooth="yes"/>
      <point x="358.292817679558" y="659.0"/>
      <point x="406.40285591150644" y="621.7234630302903"/>
      <point x="459" y="558" type="curve"/>
      <point x="490.1724451298067" y="622.356015751859"/>
      <point x="370.30964467005083" y="709.0"/>
      <point x="277" y="709" type="curve" smooth="yes"/>
      <point x="194" y="709.0"/>
      <point x="119" y="684"/>
    </contour>
    <contour>
      <point x="299" y="403" type="line" smooth="yes"/>
      <point x="114.0" y="403"/>
      <point x="75" y="312.29940119760477"/>
      <point x="75" y="216" type="curve" smooth="yes"/>
      <point x="75" y="212" type="line" smooth="yes"/>
      <point x="75" y="93.6698113207547"/>
      <point x="142.55913978494624" y="-10.0"/>
      <point x="281" y="-10" type="curve" smooth="yes"/>
      <point x="295" y="-10"/>
      <point x="303" y="4"/>
      <point x="303" y="26" type="curve"/>
      <point x="184.7088607594937" y="26.0"/>
      <point x="125" y="85.18181818181819"/>
      <point x="125" y="212" type="curve" smooth="yes"/>
      <point x="125" y="216" type="line" smooth="yes"/>
      <point x="125" y="300.2033898305085"/>
      <point x="166.0" y="354.0"/>
      <point x="297" y="354" type="curve" smooth="yes"/>
      <point x="406.0" y="354.0"/>
      <point x="443.0" y="345.0"/>
      <point x="490" y="324" type="curve"/>
      <point x="494" y="353"/>
      <point x="491" y="366"/>
      <point x="483" y="374" type="curve" smooth="yes"/>
      <point x="464.0" y="393.0"/>
      <point x="390.0" y="403.0"/>
      <point x="308" y="403" type="curve" smooth="yes"/>
    </contour>
  </outline>
</glyph>
<glyph name="acutecomb" format="1">
  <unicode hex="0301"/>
  <note>
    combining acute accent
  </note>
  <outline>
    <contour>
      <point x="-10.0" y="641.0" type="curve" smooth="yes"/>
      <point x="1.0" y="641.0"/>
      <point x="16" y="645"/>
      <point x="31.0" y="654.0" type="curve" smooth="yes"/>
      <point x="80.0" y="682.0"/>
      <point x="122.0" y="730.0"/>
      <point x="137.0" y="775.0" type="curve"/>
      <point x="141" y="786"/>
      <point x="139" y="799.0"/>
      <point x="126.0" y="805.0" type="curve" smooth="yes"/>
      <point x="115" y="810"/>
      <point x="107.0" y="811.0"/>
      <point x="92.0" y="811.0" type="curve"/>
      <point x="77.0" y="752.0"/>
      <point x="32.0" y="700.0"/>
      <point x="-33.0" y="650.0" type="curve"/>
      <point x="-27.0" y="643.0"/>
      <point x="-17.0" y="641.0"/>
    </contour>
    <contour>
      <point x="0" y="535" type="move" name="_top"/>
    </contour>
  </outline>
</glyph>
<glyph name="circumflexcomb" format="1">
  <unicode hex="0302"/>
  <outline>
    <contour>
      <point x="-151" y="639" type="line"/>
      <point x="-117" y="697"/>
      <point x="-53" y="752"/>
      <point x="13" y="773" type="curve"/>
      <point x="13" y="805"/>
      <point x="7" y="820"/>
      <point x="0" y="820" type="curve"/>
      <point x="-7" y="820" type="line"/>
      <point x="-65" y="798"/>
      <point x="-115" y="755"/>
      <point x="-154" y="709" type="curve" smooth="yes"/>
      <point x="-176" y="683"/>
      <point x="-183" y="665"/>
      <point x="-183" y="657" type="curve" smooth="yes"/>
      <point x="-183" y="646"/>
      <point x="-177" y="639"/>
      <point x="-157" y="639" type="curve"/>
    </contour>
    <contour>
      <point x="196" y="651" type="curve"/>
      <point x="159" y="717"/>
      <point x="97" y="768"/>
      <point x="57" y="795" type="curve" smooth="yes"/>
      <point x="22" y="819"/>
      <point x="11" y="820"/>
      <point x="2" y="820" type="curve" smooth="yes"/>
      <point x="-2" y="820" type="line"/>
      <point x="-8" y="820"/>
      <point x="-13" y="808"/>
      <point x="-13" y="774" type="curve"/>
      <point x="44" y="754"/>
      <point x="92" y="717"/>
      <point x="132" y="668" type="curve" smooth="yes"/>
      <point x="149" y="647"/>
      <point x="155" y="642"/>
      <point x="167" y="642" type="curve" smooth="yes"/>
      <point x="179" y="642"/>
      <point x="187" y="644"/>
    </contour>
    <contour>
      <point x="0" y="535" type="move" name="_top"/>
    </contour>
  </outline>
</glyph>
<glyph name="tildecomb" format="1">
  <unicode hex="0303"/>
  <outline>
    <contour>
      <point x="84" y="698.0" type="curve" smooth="yes"/>
      <point x="25.0" y="698.0"/>
      <point x="-2" y="763.0"/>
      <point x="-83" y="763.0" type="curve" smooth="yes"/>
      <point x="-131.0" y="763.0"/>
      <point x="-158" y="744"/>
      <point x="-170" y="719" type="curve" smooth="yes"/>
      <point x="-175" y="709"/>
      <point x="-177" y="698"/>
      <point x="-177" y="686" type="curve"/>
      <point x="-177.0" y="677.0"/>
      <point x="-176.0" y="670"/>
      <point x="-173" y="661" type="curve"/>
      <point x="-170" y="661" type="line"/>
      <point x="-145" y="700"/>
      <point x="-116" y="716.0"/>
      <point x="-84" y="716" type="curve" smooth="yes"/>
      <point x="-25.0" y="716.0"/>
      <point x="2.0" y="651.0"/>
      <point x="83.0" y="651.0" type="curve" smooth="yes"/>
      <point x="131.0" y="651.0"/>
      <point x="158.0" y="670.0"/>
      <point x="170.0" y="695.0" type="curve" smooth="yes"/>
      <point x="175.0" y="705.0"/>
      <point x="177.0" y="716.0"/>
      <point x="177.0" y="728.0" type="curve"/>
      <point x="177.0" y="737.0"/>
      <point x="176.0" y="744.0"/>
      <point x="173.0" y="753.0" type="curve"/>
      <point x="170.0" y="753.0" type="line"/>
      <point x="145.0" y="714.0"/>
      <point x="116.0" y="698.0"/>
    </contour>
    <contour>
      <point x="0" y="535" type="move" name="_top"/>
    </contour>
  </outline>
</glyph>
<glyph name="macroncomb" format="1">
  <unicode hex="0304"/>
  <outline>
    <contour>
      <point x="-190" y="739" type="line"/>
      <point x="-190" y="736"/>
      <point x="-190" y="732"/>
      <point x="-190" y="729" type="curve" smooth="yes"/>
      <point x="-190.0" y="707.0"/>
      <point x="-185.33333333333334" y="689.0"/>
      <point x="-167" y="689" type="curve"/>
      <point x="190" y="689" type="line"/>
      <point x="190" y="692"/>
      <point x="190" y="696"/>
      <point x="190" y="699" type="curve" smooth="yes"/>
      <point x="190" y="721"/>
      <point x="185" y="739"/>
      <point x="167" y="739" type="curve"/>
    </contour>
    <contour>
      <point x="0" y="535" type="move" name="_top"/>
    </contour>
  </outline>
</glyph>
<glyph name="dotaccentcomb" format="1">
  <unicode hex="0307"/>
  <outline>
    <contour>
      <point x="40" y="668" type="curve"/>
      <point x="40" y="720" type="line" smooth="yes"/>
      <point x="40" y="742"/>
      <point x="22" y="755"/>
      <point x="-10" y="755" type="curve" smooth="yes"/>
      <point x="-22" y="755"/>
      <point x="-32" y="754"/>
      <point x="-40" y="752" type="curve"/>
      <point x="-40" y="700" type="line" smooth="yes"/>
      <point x="-40" y="678"/>
      <point x="-21" y="665"/>
      <point x="10" y="665" type="curve" smooth="yes"/>
      <point x="22" y="665"/>
      <point x="32" y="666"/>
    </contour>
    <contour>
      <point x="0" y="535" type="move" name="_top"/>
    </contour>
    <contour>
      <point x="0" y="711" type="move" name="_dot"/>
    </contour>
  </outline>
</glyph>
<glyph name="caroncomb" format="1">
  <unicode hex="030C"/>
  <outline>
    <component base="circumflexcomb" xScale="-1.0" yScale="-1.0" xOffset="1" yOffset="1459"/>
    <contour>
      <point x="0" y="535" type="move" name="_top"/>
    </contour>
  </outline>
</glyph>
<glyph name="commaaboverightcomb" format="1">
  <unicode hex="0315"/>
  <outline>
    <contour>
      <point x="-22.0" y="535.0" type="curve" smooth="yes"/>
      <point x="-12" y="535.0"/>
      <point x="-7.0" y="537.0"/>
      <point x="-1" y="543" type="curve" smooth="yes"/>
      <point x="28" y="572"/>
      <point x="42.0" y="619.0"/>
      <point x="42" y="674" type="curve" smooth="yes"/>
      <point x="42.0" y="701"/>
      <point x="30.0" y="709.0"/>
      <point x="13" y="709.0" type="curve" smooth="yes"/>
      <point x="2" y="709.0"/>
      <point x="-3" y="707.0"/>
      <point x="-10" y="704.0" type="curve"/>
      <point x="-10.0" y="634.0"/>
      <point x="-17.0" y="604.0"/>
      <point x="-43.0" y="541.0" type="curve"/>
      <point x="-37" y="537.0"/>
      <point x="-32" y="535.0"/>
    </contour>
    <contour>
      <point x="0" y="611" type="move" name="_caronslovak"/>
    </contour>
  </outline>
</glyph>
<glyph name="pi" format="1">
  <advance width="600"/>
  <unicode hex="03C0"/>
  <outline>
    <contour>
      <point x="200" y="-5" type="curve"/>
      <point x="200" y="429" type="line" smooth="yes"/>
      <point x="200.0" y="476.0"/>
      <point x="182.0" y="500.0"/>
      <point x="166" y="500" type="curve" smooth="yes"/>
      <point x="162" y="500"/>
      <point x="156" y="500"/>
      <point x="150" y="500" type="curve"/>
      <point x="150" y="18" type="line" smooth="yes"/>
      <point x="150" y="0"/>
      <point x="168" y="-5"/>
      <point x="190" y="-5" type="curve" smooth="yes"/>
      <point x="193" y="-5"/>
      <point x="197" y="-5"/>
    </contour>
    <contour>
      <point x="450" y="500" type="line"/>
      <point x="446" y="501"/>
      <point x="442" y="502"/>
      <point x="436" y="502" type="curve" smooth="yes"/>
      <point x="418" y="502"/>
      <point x="400.0" y="497.0"/>
      <point x="400" y="479" type="curve" smooth="yes"/>
      <point x="400" y="78" type="line" smooth="yes"/>
      <point x="400" y="35"/>
      <point x="435" y="7"/>
      <point x="471" y="22" type="curve"/>
      <point x="454" y="39"/>
      <point x="450" y="49"/>
      <point x="450" y="85" type="curve"/>
    </contour>
    <contour>
      <point x="519" y="48" type="line"/>
      <point x="515" y="48" type="line"/>
      <point x="505" y="41.0"/>
      <point x="494" y="38.0"/>
      <point x="481" y="38" type="curve" smooth="yes"/>
      <point x="459" y="38"/>
      <point x="440" y="51"/>
      <point x="440" y="101" type="curve"/>
      <point x="410" y="103"/>
      <point x="400" y="97"/>
      <point x="400" y="78" type="curve" smooth="yes"/>
      <point x="400" y="26"/>
      <point x="429.0" y="-10"/>
      <point x="475" y="-10" type="curve" smooth="yes"/>
      <point x="478" y="-10" type="line" smooth="yes"/>
      <point x="504" y="-10"/>
      <point x="519" y="10"/>
      <point x="519" y="41" type="curve"/>
    </contour>
    <contour>
      <point x="75" y="526" type="line"/>
      <point x="75" y="523"/>
      <point x="75" y="519"/>
      <point x="75" y="516" type="curve" smooth="yes"/>
      <point x="75.0" y="494.0"/>
      <point x="79.66666666666666" y="476.0"/>
      <point x="98" y="476" type="curve" smooth="yes"/>
      <point x="525" y="476" type="line"/>
      <point x="525" y="479"/>
      <point x="525" y="483"/>
      <point x="525" y="486" type="curve" smooth="yes"/>
      <point x="525" y="508"/>
      <point x="520.0" y="526.0"/>
      <point x="502" y="526" type="curve" smooth="yes"/>
    </contour>
  </outline>
</glyph>
<glyph name="dagger" format="1">
  <advance width="600"/>
  <unicode hex="2020"/>
  <outline>
    <contour>
      <point x="336" y="-150" type="curve"/>
      <point x="326" y="-102"/>
      <point x="324.0" y="-61.0"/>
      <point x="324" y="1" type="curve"/>
      <point x="324" y="460" type="line" smooth="yes"/>
      <point x="324" y="670" type="line" smooth="yes"/>
      <point x="324" y="701"/>
      <point x="313.0" y="710.0"/>
      <point x="289" y="710" type="curve" smooth="yes"/>
      <point x="280" y="710"/>
      <point x="273" y="709"/>
      <point x="267" y="707" type="curve"/>
      <point x="273" y="672"/>
      <point x="274" y="637"/>
      <point x="274" y="600" type="curve"/>
      <point x="274" y="283" type="line" smooth="yes"/>
      <point x="274" y="-85.0"/>
      <point x="286.0" y="-127.0"/>
      <point x="304" y="-145" type="curve" smooth="yes"/>
      <point x="310" y="-151"/>
      <point x="315" y="-153.0"/>
      <point x="322" y="-153.0" type="curve"/>
      <point x="327" y="-153.0"/>
      <point x="332" y="-152.0"/>
    </contour>
    <contour>
      <point x="60" y="450" type="curve"/>
      <point x="540" y="450" type="line"/>
      <point x="540.0" y="453.0"/>
      <point x="540.0" y="457.0"/>
      <point x="540" y="460" type="curve" smooth="yes"/>
      <point x="540.0" y="482.0"/>
      <point x="535.0" y="500.0"/>
      <point x="517" y="500" type="curve" smooth="yes"/>
      <point x="83" y="500" type="line" smooth="yes"/>
      <point x="64.66666666666666" y="500.0"/>
      <point x="60.0" y="482.0"/>
      <point x="60" y="460" type="curve" smooth="yes"/>
      <point x="60.0" y="457.0"/>
      <point x="60.0" y="453.0"/>
    </contour>
  </outline>
</glyph>
<glyph name="daggerdbl" format="1">
  <advance width="600"/>
  <unicode hex="2021"/>
  <outline>
    <contour>
      <point x="290" y="710" type="curve" smooth="yes"/>
      <point x="281" y="710.0"/>
      <point x="274" y="709.0"/>
      <point x="268" y="707" type="curve"/>
      <point x="274.0" y="672"/>
      <point x="275.0" y="637"/>
      <point x="275" y="600" type="curve"/>
      <point x="275" y="-112" type="line" smooth="yes"/>
      <point x="275" y="-143"/>
      <point x="286" y="-152"/>
      <point x="310" y="-152" type="curve" smooth="yes"/>
      <point x="319" y="-152.0"/>
      <point x="326" y="-151.0"/>
      <point x="332" y="-149" type="curve"/>
      <point x="326.0" y="-114"/>
      <point x="325.0" y="-79"/>
      <point x="325" y="-42" type="curve"/>
      <point x="325" y="670" type="line" smooth="yes"/>
      <point x="325" y="701"/>
      <point x="314" y="710"/>
    </contour>
    <contour>
      <point x="60" y="450" type="curve"/>
      <point x="540" y="450" type="line"/>
      <point x="540.0" y="453.0"/>
      <point x="540.0" y="457.0"/>
      <point x="540" y="460" type="curve" smooth="yes"/>
      <point x="540.0" y="482.0"/>
      <point x="535.0" y="500.0"/>
      <point x="517" y="500" type="curve" smooth="yes"/>
      <point x="83" y="500" type="line" smooth="yes"/>
      <point x="65" y="500.0"/>
      <point x="60.0" y="482.0"/>
      <point x="60" y="460" type="curve" smooth="yes"/>
      <point x="60.0" y="457.0"/>
      <point x="60.0" y="453.0"/>
    </contour>
    <contour>
      <point x="538.0" y="106.0" type="curve"/>
      <point x="58.0" y="106.0" type="line"/>
      <point x="58.0" y="103.0"/>
      <point x="58.0" y="99.0"/>
      <point x="58.0" y="96.0" type="curve" smooth="yes"/>
      <point x="58.0" y="74.0"/>
      <point x="63.0" y="56.0"/>
      <point x="81.0" y="56.0" type="curve" smooth="yes"/>
      <point x="515.0" y="56.0" type="line" smooth="yes"/>
      <point x="533.0" y="56.0"/>
      <point x="538.0" y="74.0"/>
      <point x="538.0" y="96.0" type="curve" smooth="yes"/>
      <point x="538.0" y="99.0"/>
      <point x="538.0" y="103.0"/>
    </contour>
  </outline>
</glyph>
<glyph name="bitcoin" format="1">
  <advance width="600"/>
  <unicode hex="20BF"/>
  <outline>
    <contour>
      <point x="239.0" y="685.0" type="curve"/>
      <point x="239.0" y="782.0" type="line" smooth="yes"/>
      <point x="239.0" y="800.0"/>
      <point x="221.0" y="805.0"/>
      <point x="199.0" y="805.0" type="curve"/>
      <point x="196.0" y="805.0"/>
      <point x="192.0" y="805.0"/>
      <point x="189.0" y="805.0" type="curve"/>
      <point x="189.0" y="708.0" type="line" smooth="yes"/>
      <point x="189" y="692"/>
      <point x="202.0" y="685.0"/>
      <point x="229.0" y="685.0" type="curve" smooth="yes"/>
      <point x="232.0" y="685.0"/>
      <point x="236.0" y="685.0"/>
    </contour>
    <contour>
      <point x="389.0" y="685.0" type="curve"/>
      <point x="389.0" y="782.0" type="line" smooth="yes"/>
      <point x="389.0" y="800.0"/>
      <point x="371.0" y="805.0"/>
      <point x="349.0" y="805.0" type="curve"/>
      <point x="346.0" y="805.0"/>
      <point x="342.0" y="805.0"/>
      <point x="339.0" y="805.0" type="curve"/>
      <point x="339.0" y="708.0" type="line" smooth="yes"/>
      <point x="339" y="692"/>
      <point x="352.0" y="685.0"/>
      <point x="379.0" y="685.0" type="curve" smooth="yes"/>
      <point x="382.0" y="685.0"/>
      <point x="386.0" y="685.0"/>
    </contour>
    <contour>
      <point x="239.0" y="-105.0" type="curve"/>
      <point x="239.0" y="2.0" type="line" smooth="yes"/>
      <point x="239" y="20"/>
      <point x="221.0" y="25.0"/>
      <point x="199.0" y="25.0" type="curve"/>
      <point x="196.0" y="25.0"/>
      <point x="192.0" y="25.0"/>
      <point x="189.0" y="25.0" type="curve"/>
      <point x="189.0" y="-82.0" type="line" smooth="yes"/>
      <point x="189.0" y="-98.0"/>
      <point x="202.0" y="-105.0"/>
      <point x="229.0" y="-105.0" type="curve" smooth="yes"/>
      <point x="232.0" y="-105.0"/>
      <point x="236.0" y="-105.0"/>
    </contour>
    <contour>
      <point x="389.0" y="-105.0" type="curve"/>
      <point x="389.0" y="12.0" type="line" smooth="yes"/>
      <point x="389.0" y="30.0"/>
      <point x="371.0" y="35.0"/>
      <point x="349.0" y="35.0" type="curve"/>
      <point x="346.0" y="35.0"/>
      <point x="342.0" y="35.0"/>
      <point x="339.0" y="35.0" type="curve"/>
      <point x="339.0" y="-82.0" type="line" smooth="yes"/>
      <point x="339.0" y="-98.0"/>
      <point x="352.0" y="-105.0"/>
      <point x="379.0" y="-105.0" type="curve" smooth="yes"/>
      <point x="382.0" y="-105.0"/>
      <point x="386.0" y="-105.0"/>
    </contour>
    <component base="B"/>
  </outline>
</glyph>
<glyph name="trademark" format="1">
  <advance width="600"/>
  <unicode hex="2122"/>
  <outline>
    <contour>
      <point x="13.0" y="700.0" type="line"/>
      <point x="11.0" y="695"/>
      <point x="10.0" y="691"/>
      <point x="10" y="686" type="curve" smooth="yes"/>
      <point x="10.0" y="669.0"/>
      <point x="16.0" y="654.0"/>
      <point x="65" y="654.0" type="curve" smooth="yes"/>
      <point x="275.0" y="654.0" type="line"/>
      <point x="276.0" y="659"/>
      <point x="278.0" y="666"/>
      <point x="278.0" y="675" type="curve" smooth="yes"/>
      <point x="278.0" y="687.5"/>
      <point x="274.0" y="700.0"/>
      <point x="247.0" y="700.0" type="curve" smooth="yes"/>
    </contour>
    <contour>
      <point x="181" y="350" type="curve"/>
      <point x="174" y="371"/>
      <point x="172" y="394"/>
      <point x="172.0" y="419.0" type="curve" smooth="yes"/>
      <point x="172.0" y="609" type="line" smooth="yes"/>
      <point x="172.0" y="649.0"/>
      <point x="160" y="662.0"/>
      <point x="126.0" y="662.0" type="curve"/>
      <point x="126" y="404" type="line" smooth="yes"/>
      <point x="126" y="350.0"/>
      <point x="139.0" y="346.0"/>
      <point x="160.0" y="346.0" type="curve" smooth="yes"/>
      <point x="169" y="346.0"/>
      <point x="174" y="347.0"/>
    </contour>
    <contour>
      <point x="360" y="347" type="curve"/>
      <point x="360.0" y="381.0"/>
      <point x="360.0" y="411"/>
      <point x="360" y="446.0" type="curve" smooth="yes"/>
      <point x="360.0" y="502.0"/>
      <point x="350.0" y="581.0"/>
      <point x="350" y="679" type="curve" smooth="yes"/>
      <point x="350.0" y="687.0"/>
      <point x="350.82608695652175" y="701.0"/>
      <point x="331" y="701.0" type="curve" smooth="yes"/>
      <point x="327.0" y="701.0"/>
      <point x="317" y="700.0"/>
      <point x="312" y="699.0" type="curve"/>
      <point x="313.0" y="683"/>
      <point x="314.0" y="664.0"/>
      <point x="314" y="646.0" type="curve" smooth="yes"/>
      <point x="314" y="372" type="line" smooth="yes"/>
      <point x="314.0" y="354.0"/>
      <point x="321.05882352941177" y="345.0"/>
      <point x="344.0" y="345.0" type="curve" smooth="yes"/>
      <point x="350" y="345"/>
      <point x="356" y="345.0"/>
    </contour>
    <contour>
      <point x="563.0" y="347.0" type="curve"/>
      <point x="560" y="364.0"/>
      <point x="558.0" y="381.0"/>
      <point x="558" y="400.0" type="curve" smooth="yes"/>
      <point x="558" y="678" type="line" smooth="yes"/>
      <point x="558.0" y="694.5"/>
      <point x="540.060606060606" y="701.0"/>
      <point x="521" y="701.0" type="curve" smooth="yes"/>
      <point x="518" y="701.0" type="line"/>
      <point x="523" y="695"/>
      <point x="524.0" y="689.0"/>
      <point x="524.0" y="681.0" type="curve" smooth="yes"/>
      <point x="524.0" y="617.0"/>
      <point x="512.0" y="500.0"/>
      <point x="512" y="446.0" type="curve" smooth="yes"/>
      <point x="512.0" y="422.0"/>
      <point x="512" y="396"/>
      <point x="512" y="372" type="curve" smooth="yes"/>
      <point x="512.0" y="355.0"/>
      <point x="523.5142857142857" y="345.0"/>
      <point x="543.0" y="345.0" type="curve"/>
      <point x="550" y="345"/>
      <point x="556" y="345"/>
    </contour>
    <contour>
      <point x="331" y="701.0" type="line"/>
      <point x="344" y="619"/>
      <point x="396" y="503"/>
      <point x="424" y="475" type="curve"/>
      <point x="428.0" y="471.0"/>
      <point x="432.0" y="469.0"/>
      <point x="435" y="469" type="curve"/>
      <point x="446.0" y="469.0"/>
      <point x="447.0" y="498.0"/>
      <point x="447" y="514.0" type="curve"/>
      <point x="417" y="554"/>
      <point x="390.00683598820524" y="605.9527695360366"/>
      <point x="379.0" y="682.0" type="curve"/>
      <point x="377.00261281781536" y="692.9856295020156"/>
      <point x="360.7916666666667" y="701.0"/>
      <point x="333" y="701.0" type="curve"/>
    </contour>
    <contour>
      <point x="518" y="701.0" type="curve" smooth="yes"/>
      <point x="511.6" y="701.0"/>
      <point x="507.71763244312865" y="700.6336092694653"/>
      <point x="502" y="699.0" type="curve"/>
      <point x="489" y="609"/>
      <point x="451" y="544"/>
      <point x="427" y="515" type="curve"/>
      <point x="422.0" y="507.0"/>
      <point x="426.0" y="469.0"/>
      <point x="435.0" y="469" type="curve"/>
      <point x="440.0" y="469" type="line"/>
      <point x="476" y="505"/>
      <point x="526" y="604"/>
      <point x="530.0" y="676.0" type="curve"/>
      <point x="531.0024289566994" y="692.0388633071914"/>
      <point x="525.5" y="701.0"/>
    </contour>
  </outline>
</glyph>
<glyph name="radical" format="1">
  <advance width="600"/>
  <unicode hex="221A"/>
  <outline>
    <contour>
      <point x="26" y="442" type="curve"/>
      <point x="24.0" y="437"/>
      <point x="23.0" y="431"/>
      <point x="23" y="424" type="curve" smooth="yes"/>
      <point x="23.0" y="404.0"/>
      <point x="32.0" y="392.0"/>
      <point x="46" y="392" type="curve" smooth="yes"/>
      <point x="55" y="392.0"/>
      <point x="72" y="400.0"/>
      <point x="128" y="400" type="curve"/>
      <point x="128.0" y="438"/>
      <point x="123" y="450"/>
      <point x="111" y="450.0" type="curve" smooth="yes"/>
      <point x="77" y="450"/>
      <point x="50" y="448"/>
    </contour>
    <contour>
      <point x="111" y="450.0" type="curve"/>
      <point x="103.0" y="450.0"/>
      <point x="96" y="448.0"/>
      <point x="89" y="444" type="curve"/>
      <point x="111" y="210"/>
      <point x="144" y="116"/>
      <point x="246" y="14" type="curve"/>
      <point x="262" y="-2"/>
      <point x="277" y="-10"/>
      <point x="295" y="-10" type="curve" smooth="yes"/>
      <point x="301" y="-10" type="line" smooth="yes"/>
      <point x="320" y="-10"/>
      <point x="329" y="-1"/>
      <point x="340" y="18" type="curve"/>
      <point x="330" y="18"/>
      <point x="323" y="18"/>
      <point x="320" y="18" type="curve" smooth="yes"/>
      <point x="315" y="18"/>
      <point x="309" y="20"/>
      <point x="306" y="23" type="curve"/>
      <point x="193" y="130"/>
      <point x="160" y="211"/>
      <point x="142" y="427" type="curve"/>
      <point x="141" y="444"/>
      <point x="126" y="450"/>
    </contour>
    <contour>
      <point x="532" y="711" type="curve" smooth="yes"/>
      <point x="522" y="711" type="line"/>
      <point x="496" y="324"/>
      <point x="408" y="121"/>
      <point x="287" y="16" type="curve"/>
      <point x="272" y="3"/>
      <point x="284" y="-10"/>
      <point x="298" y="-10" type="curve"/>
      <point x="326" y="-10" type="line"/>
      <point x="450" y="87"/>
      <point x="540" y="315"/>
      <point x="570" y="679" type="curve"/>
      <point x="571.0" y="697.0"/>
      <point x="558" y="711"/>
    </contour>
  </outline>
</glyph>
<glyph name="integral" format="1">
  <advance width="600"/>
  <unicode hex="222B"/>
  <outline>
    <contour>
      <point x="320" y="659" type="curve"/>
      <point x="353.0" y="696.0"/>
      <point x="383.40816326530614" y="710.0"/>
      <point x="440" y="710" type="curve" smooth="yes"/>
      <point x="487.0" y="710.0"/>
      <point x="528.0" y="693.0"/>
      <point x="566" y="675" type="curve"/>
      <point x="570" y="675" type="line"/>
      <point x="570" y="680"/>
      <point x="570" y="686"/>
      <point x="570" y="691" type="curve"/>
      <point x="570" y="711"/>
      <point x="565" y="724"/>
      <point x="560" y="729" type="curve" smooth="yes"/>
      <point x="549.0" y="740.0"/>
      <point x="500.0" y="760.0"/>
      <point x="440" y="760" type="curve" smooth="yes"/>
      <point x="366.55102040816325" y="760.0"/>
      <point x="290.0" y="696.0"/>
    </contour>
    <contour>
      <point x="275" y="572" type="curve" smooth="yes"/>
      <point x="275" y="-30" type="line"/>
      <point x="275.0" y="-99.0"/>
      <point x="268.0" y="-141.0"/>
      <point x="258" y="-178" type="curve"/>
      <point x="304" y="-160"/>
      <point x="325" y="-111"/>
      <point x="325" y="-58" type="curve"/>
      <point x="325" y="573" type="line" smooth="yes"/>
      <point x="325.0" y="679.0"/>
      <point x="363.0" y="728.0"/>
      <point x="459" y="728" type="curve"/>
      <point x="466" y="752"/>
      <point x="449" y="760"/>
      <point x="440" y="760" type="curve" smooth="yes"/>
      <point x="333.0" y="760.0"/>
      <point x="275.0" y="702.0"/>
    </contour>
    <contour>
      <point x="145" y="-200" type="curve" smooth="yes"/>
      <point x="99" y="-200.0"/>
      <point x="74" y="-188"/>
      <point x="38" y="-156" type="curve"/>
      <point x="34" y="-156" type="line"/>
      <point x="31" y="-163"/>
      <point x="30" y="-170"/>
      <point x="30" y="-183" type="curve" smooth="yes"/>
      <point x="30" y="-196"/>
      <point x="34" y="-209"/>
      <point x="44" y="-219" type="curve" smooth="yes"/>
      <point x="62" y="-237"/>
      <point x="92.0" y="-250.0"/>
      <point x="144" y="-250.0" type="curve" smooth="yes"/>
      <point x="263.5064102564103" y="-250.0"/>
      <point x="325.0" y="-184.0"/>
      <point x="325" y="-58" type="curve" smooth="yes"/>
      <point x="325" y="-47"/>
      <point x="308" y="-38"/>
      <point x="283" y="-38" type="curve"/>
      <point x="277.99794032401934" y="-160.05025609392777"/>
      <point x="231.7079646017699" y="-200.0"/>
    </contour>
  </outline>
</glyph>
<glyph name="notequal" format="1">
  <advance width="600"/>
  <unicode hex="2260"/>
  <outline>
    <contour>
      <point x="430" y="566" type="curve"/>
      <point x="421" y="568.0"/>
      <point x="413" y="570.0"/>
      <point x="400" y="570" type="curve" smooth="yes"/>
      <point x="389.0" y="570.0"/>
      <point x="382" y="568"/>
      <point x="379" y="556" type="curve" smooth="yes"/>
      <point x="335.0" y="383.0"/>
      <point x="277.0" y="234"/>
      <point x="194" y="89" type="curve" smooth="yes"/>
      <point x="184" y="71"/>
      <point x="177" y="60"/>
      <point x="161" y="38" type="curve"/>
      <point x="167" y="34.0"/>
      <point x="176" y="32.0"/>
      <point x="188" y="32" type="curve" smooth="yes"/>
      <point x="200.0" y="32.0"/>
      <point x="214.0" y="37.0"/>
      <point x="221" y="49" type="curve" smooth="yes"/>
      <point x="311.0" y="198.0"/>
      <point x="382.0" y="371.0"/>
    </contour>
    <component base="equal"/>
  </outline>
</glyph>
<glyph name="lessequal" format="1">
  <advance width="600"/>
  <unicode hex="2264"/>
  <outline>
    <contour>
      <point x="529.0" y="490.0" type="curve"/>
      <point x="529.0" y="496.0" type="line"/>
      <point x="529.0" y="526.0"/>
      <point x="518.0" y="535.0"/>
      <point x="507.0" y="535.0" type="curve" smooth="yes"/>
      <point x="494.0" y="535.0"/>
      <point x="465.0" y="532.0"/>
      <point x="426.0" y="525.0" type="curve"/>
      <point x="298.0" y="498.0"/>
      <point x="200.0" y="468.0"/>
      <point x="75.0" y="389.0" type="curve"/>
      <point x="75.0" y="369.0" type="line"/>
      <point x="75.0" y="358.0"/>
      <point x="91.0" y="346.0"/>
      <point x="107.0" y="356.0" type="curve" smooth="yes"/>
      <point x="231.0" y="432.0"/>
      <point x="361.0" y="474.0"/>
    </contour>
    <contour>
      <point x="524.0" y="194.0" type="curve"/>
      <point x="526.0" y="203.0"/>
      <point x="527.0" y="211.0"/>
      <point x="527.0" y="218.0" type="curve"/>
      <point x="527.0" y="236.0"/>
      <point x="521.0" y="241.0"/>
      <point x="508.0" y="243.0" type="curve" smooth="yes"/>
      <point x="322.0" y="272.0"/>
      <point x="248.0" y="300.0"/>
      <point x="117.0" y="368.0" type="curve"/>
      <point x="109.0" y="372.0"/>
      <point x="107.0" y="379.0"/>
      <point x="107.0" y="385.0" type="curve" smooth="yes"/>
      <point x="107.0" y="388.0"/>
      <point x="107.0" y="391.0"/>
      <point x="107.0" y="395.0" type="curve"/>
      <point x="90.0" y="390.0"/>
      <point x="75.0" y="384.0"/>
      <point x="75.0" y="375.0" type="curve" smooth="yes"/>
      <point x="75.0" y="366.0" type="line" smooth="yes"/>
      <point x="75.0" y="348.0"/>
      <point x="82.0" y="337.0"/>
      <point x="103.0" y="325.0" type="curve" smooth="yes"/>
      <point x="216.0" y="264.0"/>
      <point x="328.0" y="219.0"/>
    </contour>
    <contour>
      <point x="75" y="145" type="line"/>
      <point x="75.0" y="142.0"/>
      <point x="75" y="138"/>
      <point x="75" y="135" type="curve" smooth="yes"/>
      <point x="75.0" y="113.0"/>
      <point x="80.0" y="95.0"/>
      <point x="98" y="95" type="curve"/>
      <point x="524" y="95" type="line"/>
      <point x="524.0" y="98.0"/>
      <point x="524.0" y="102.0"/>
      <point x="524" y="105" type="curve" smooth="yes"/>
      <point x="524.0" y="127.0"/>
      <point x="519.0" y="145.0"/>
      <point x="501" y="145" type="curve"/>
    </contour>
  </outline>
</glyph>
<glyph name="greaterequal" format="1">
  <advance width="600"/>
  <unicode hex="2265"/>
  <outline>
    <contour>
      <point x="80.0" y="534.0" type="curve"/>
      <point x="78.0" y="525.0"/>
      <point x="77.0" y="517.0"/>
      <point x="77.0" y="510.0" type="curve"/>
      <point x="77.0" y="492.0"/>
      <point x="83.0" y="487.0"/>
      <point x="96.0" y="485.0" type="curve" smooth="yes"/>
      <point x="282.0" y="456.0"/>
      <point x="356.0" y="428.0"/>
      <point x="487.0" y="360.0" type="curve"/>
      <point x="495.0" y="356.0"/>
      <point x="497.0" y="349.0"/>
      <point x="497.0" y="343.0" type="curve" smooth="yes"/>
      <point x="497.0" y="340.0"/>
      <point x="497.0" y="337.0"/>
      <point x="497.0" y="333.0" type="curve"/>
      <point x="514.0" y="338.0"/>
      <point x="529.0" y="344.0"/>
      <point x="529.0" y="353.0" type="curve" smooth="yes"/>
      <point x="529.0" y="362.0" type="line" smooth="yes"/>
      <point x="529.0" y="380.0"/>
      <point x="522.0" y="391.0"/>
      <point x="501.0" y="403.0" type="curve" smooth="yes"/>
      <point x="388.0" y="464.0"/>
      <point x="276.0" y="509.0"/>
    </contour>
    <contour>
      <point x="75.0" y="238.0" type="curve"/>
      <point x="75.0" y="232.0" type="line"/>
      <point x="75.0" y="202.0"/>
      <point x="86.0" y="193.0"/>
      <point x="97.0" y="193.0" type="curve" smooth="yes"/>
      <point x="110.0" y="193.0"/>
      <point x="139.0" y="196.0"/>
      <point x="178.0" y="203.0" type="curve"/>
      <point x="306.0" y="230.0"/>
      <point x="404.0" y="260.0"/>
      <point x="529.0" y="339.0" type="curve"/>
      <point x="529.0" y="359.0" type="line"/>
      <point x="529.0" y="370.0"/>
      <point x="513.0" y="382.0"/>
      <point x="497.0" y="372.0" type="curve" smooth="yes"/>
      <point x="373.0" y="296.0"/>
      <point x="243.0" y="254.0"/>
    </contour>
    <contour>
      <point x="75" y="145" type="line"/>
      <point x="75.0" y="142.0"/>
      <point x="75" y="138"/>
      <point x="75" y="135" type="curve" smooth="yes"/>
      <point x="75.0" y="113.0"/>
      <point x="80.0" y="95.0"/>
      <point x="98" y="95" type="curve"/>
      <point x="524" y="95" type="line"/>
      <point x="524.0" y="98.0"/>
      <point x="524.0" y="102.0"/>
      <point x="524" y="105" type="curve" smooth="yes"/>
      <point x="524.0" y="127.0"/>
      <point x="519.0" y="145.0"/>
      <point x="501" y="145" type="curve"/>
    </contour>
  </outline>
</glyph>
<glyph name="lozenge" format="1">
  <advance width="600"/>
  <unicode hex="25CA"/>
  <outline>
    <contour>
      <point x="123" y="323" type="curve"/>
      <point x="171" y="504"/>
      <point x="215" y="575"/>
      <point x="316" y="683" type="curve"/>
      <point x="325" y="692"/>
      <point x="319" y="702"/>
      <point x="305" y="710" type="curve"/>
      <point x="279" y="710" type="line"/>
      <point x="200" y="636"/>
      <point x="142" y="539"/>
      <point x="103" y="424" type="curve" smooth="yes"/>
      <point x="91.0" y="389.0"/>
      <point x="84.0" y="361"/>
      <point x="84.0" y="350" type="curve" smooth="yes"/>
      <point x="84.0" y="340"/>
      <point x="94" y="331"/>
    </contour>
    <contour>
      <point x="124.0" y="377.0" type="curve"/>
      <point x="94.0" y="369.0"/>
      <point x="84.0" y="360.0"/>
      <point x="84.0" y="350.0" type="curve" smooth="yes"/>
      <point x="84.0" y="339.0"/>
      <point x="92.0" y="310.0"/>
      <point x="103.0" y="276.0" type="curve" smooth="yes"/>
      <point x="137.0" y="167.0"/>
      <point x="188.0" y="84.0"/>
      <point x="252.0" y="13.0" type="curve" smooth="yes"/>
      <point x="265.0" y="-2.0"/>
      <point x="276.0" y="-10.0"/>
      <point x="291.0" y="-10.0" type="curve" smooth="yes"/>
      <point x="299.0" y="-10.0" type="line" smooth="yes"/>
      <point x="314.0" y="-10.0"/>
      <point x="324.0" y="0.0"/>
      <point x="333.0" y="17.0" type="curve"/>
      <point x="323.0" y="17.0" type="line" smooth="yes"/>
      <point x="318.0" y="17.0"/>
      <point x="312.0" y="19.0"/>
      <point x="307.0" y="25.0" type="curve" smooth="yes"/>
      <point x="205.0" y="131.0"/>
      <point x="171.0" y="191.0"/>
    </contour>
    <contour>
      <point x="476" y="323" type="curve"/>
      <point x="506" y="331"/>
      <point x="516" y="340"/>
      <point x="516" y="350" type="curve" smooth="yes"/>
      <point x="516" y="361"/>
      <point x="508.0" y="390.0"/>
      <point x="497" y="424" type="curve" smooth="yes"/>
      <point x="463.0" y="533"/>
      <point x="412" y="616"/>
      <point x="348" y="687" type="curve" smooth="yes"/>
      <point x="335" y="702"/>
      <point x="324" y="710"/>
      <point x="309" y="710" type="curve" smooth="yes"/>
      <point x="301" y="710" type="line" smooth="yes"/>
      <point x="286" y="710"/>
      <point x="276" y="700"/>
      <point x="267" y="683" type="curve"/>
      <point x="277" y="683" type="line" smooth="yes"/>
      <point x="282" y="683"/>
      <point x="288" y="681"/>
      <point x="293" y="675" type="curve" smooth="yes"/>
      <point x="395" y="569"/>
      <point x="429" y="509"/>
    </contour>
    <contour>
      <point x="477.0" y="377.0" type="curve"/>
      <point x="429.0" y="196.0"/>
      <point x="385.0" y="125.0"/>
      <point x="284.0" y="17.0" type="curve"/>
      <point x="275.0" y="8.0"/>
      <point x="281.0" y="-2.0"/>
      <point x="295.0" y="-10.0" type="curve"/>
      <point x="321.0" y="-10.0" type="line"/>
      <point x="400.0" y="64.0"/>
      <point x="458.0" y="161.0"/>
      <point x="497.0" y="276.0" type="curve" smooth="yes"/>
      <point x="509.0" y="311.0"/>
      <point x="516.0" y="339.0"/>
      <point x="516.0" y="350.0" type="curve" smooth="yes"/>
      <point x="516.0" y="360.0"/>
      <point x="506.0" y="369.0"/>
    </contour>
  </outline>
</glyph>
<glyph name="c.replaced_with_ss01" format="1">
  <advance width="600"/>
  <outline>
    <contour>
      <point x="356" y="536" type="curve" smooth="yes"/>
      <point x="195" y="536"/>
      <point x="90" y="413"/>
      <point x="90" y="219" type="curve" smooth="yes"/>
      <point x="90" y="209" type="line" smooth="yes"/>
      <point x="90.0" y="63.0"/>
      <point x="167.0" y="-10"/>
      <point x="323" y="-10" type="curve" smooth="yes"/>
      <point x="329.0" y="-10.0"/>
      <point x="333.0" y="6.0"/>
      <point x="333" y="30" type="curve"/>
      <point x="212.0" y="30"/>
      <point x="140" y="77.0"/>
      <point x="140" y="200" type="curve" smooth="yes"/>
      <point x="140" y="207" type="line" smooth="yes"/>
      <point x="140" y="384.0"/>
      <point x="220.0" y="486.0"/>
      <point x="356" y="486" type="curve" smooth="yes"/>
      <point x="419.0" y="486.0"/>
      <point x="444.0" y="471.0"/>
      <point x="475" y="432" type="curve"/>
      <point x="492.0" y="444.0"/>
      <point x="496.0" y="473.0"/>
      <point x="476" y="493" type="curve" smooth="yes"/>
      <point x="447" y="522"/>
      <point x="408.0" y="536.0"/>
    </contour>
    <contour>
      <point x="133" y="126" type="curve"/>
      <point x="114.0" y="53.0"/>
      <point x="208.0" y="-10.0"/>
      <point x="323" y="-10.0" type="curve" smooth="yes"/>
      <point x="398.0" y="-10.0"/>
      <point x="469.0" y="12.0"/>
      <point x="497" y="40" type="curve" smooth="yes"/>
      <point x="510" y="53"/>
      <point x="513.0" y="66.5"/>
      <point x="513.0" y="93" type="curve"/>
      <point x="513.0" y="101"/>
      <point x="512.0" y="106"/>
      <point x="511" y="110" type="curve"/>
      <point x="507" y="110" type="line"/>
      <point x="459.24618467053585" y="62.246184670535854"/>
      <point x="411.2061855670103" y="40.0"/>
      <point x="323" y="40" type="curve" smooth="yes"/>
      <point x="236.4945054945055" y="40.0"/>
      <point x="173" y="71"/>
    </contour>
    <contour>
      <point x="510" y="309" type="curve"/>
      <point x="510" y="398" type="line" smooth="yes"/>
      <point x="510.0" y="434.0"/>
      <point x="502" y="467"/>
      <point x="476" y="493" type="curve" smooth="yes"/>
      <point x="459.07272950343224" y="509.92727049656776"/>
      <point x="432.39413607705575" y="498.75099472659895"/>
      <point x="425" y="493" type="curve"/>
      <point x="451.66200060652966" y="461.2106915845223"/>
      <point x="460.0" y="439.0"/>
      <point x="460.0" y="395" type="curve" smooth="yes"/>
      <point x="460.0" y="349" type="line" smooth="yes"/>
      <point x="460.0" y="325.0"/>
      <point x="473.0" y="306.0"/>
      <point x="498" y="306.0" type="curve" smooth="yes"/>
      <point x="503.0" y="306.0"/>
      <point x="507" y="307.0"/>
    </contour>
  </outline>
</glyph>
<glyph name="cedillacomb.case" format="1">
  <outline>
    <contour>
      <point x="97" y="-122" type="curve" smooth="yes"/>
      <point x="97.0" y="-73.0"/>
      <point x="64" y="-45"/>
      <point x="10" y="-42" type="curve"/>
      <point x="10.0" y="-19"/>
      <point x="14" y="-1"/>
      <point x="22" y="22" type="curve"/>
      <point x="-3" y="26.0"/>
      <point x="-17" y="19"/>
      <point x="-21" y="11" type="curve" smooth="yes"/>
      <point x="-30" y="-7"/>
      <point x="-37.0" y="-30"/>
      <point x="-37" y="-58" type="curve" smooth="yes"/>
      <point x="-37.0" y="-70"/>
      <point x="-26.0" y="-80.0"/>
      <point x="-10" y="-80" type="curve" smooth="yes"/>
      <point x="29" y="-80.0"/>
      <point x="48.0" y="-95.0"/>
      <point x="48" y="-122" type="curve" smooth="yes"/>
      <point x="48.0" y="-155.0"/>
      <point x="22" y="-176.0"/>
      <point x="-23" y="-176.0" type="curve" smooth="yes"/>
      <point x="-62" y="-176.0"/>
      <point x="-79.52360820830299" y="-166.55409662283895"/>
      <point x="-100" y="-145" type="curve"/>
      <point x="-104" y="-145" type="line"/>
      <point x="-108" y="-156"/>
      <point x="-109" y="-163"/>
      <point x="-109" y="-173" type="curve" smooth="yes"/>
      <point x="-109.0" y="-198.53191489361703"/>
      <point x="-83" y="-223.0"/>
      <point x="-23" y="-223.0" type="curve" smooth="yes"/>
      <point x="52.0" y="-223.0"/>
      <point x="97.0" y="-181.0"/>
    </contour>
    <contour>
      <point x="0" y="0" type="move" name="_bottom"/>
    </contour>
  </outline>
</glyph>
<glyph name="dotaccentcomb.case" format="1">
  <outline>
    <component base="dotaccentcomb" yOffset="138"/>
    <contour>
      <point x="0" y="711" type="move" name="_top"/>
    </contour>
  </outline>
</glyph>
<glyph name="dotlessij" format="1">
  <advance width="600"/>
  <outline>
    <contour>
      <point x="100" y="440" type="curve"/>
      <point x="100" y="143" type="line" smooth="yes"/>
      <point x="100" y="49"/>
      <point x="147" y="14"/>
      <point x="191" y="24" type="curve"/>
      <point x="156" y="64"/>
      <point x="150" y="85"/>
      <point x="150" y="165" type="curve" smooth="yes"/>
      <point x="150" y="457" type="line" smooth="yes"/>
      <point x="150.0" y="484.0"/>
      <point x="148" y="506"/>
      <point x="136" y="518" type="curve" smooth="yes"/>
      <point x="126" y="528"/>
      <point x="115" y="530"/>
      <point x="105" y="530" type="curve" smooth="yes"/>
      <point x="100" y="530.0"/>
      <point x="94" y="529.0"/>
      <point x="89" y="527" type="curve"/>
      <point x="98.0" y="500"/>
      <point x="100.0" y="487.0"/>
    </contour>
    <contour>
      <point x="321" y="63" type="curve"/>
      <point x="317" y="63" type="line"/>
      <point x="300.7837112184644" y="47.86479713723348"/>
      <point x="271.11764705882354" y="40.0"/>
      <point x="239" y="40" type="curve" smooth="yes"/>
      <point x="167.66666666666669" y="40.0"/>
      <point x="132.0" y="82.0"/>
      <point x="132" y="167" type="curve"/>
      <point x="114" y="167"/>
      <point x="100" y="167"/>
      <point x="100" y="143" type="curve" smooth="yes"/>
      <point x="100.0" y="47.0"/>
      <point x="137.6637168141593" y="-10"/>
      <point x="233" y="-10" type="curve" smooth="yes"/>
      <point x="238" y="-10" type="line" smooth="yes"/>
      <point x="263.7931034482759" y="-10"/>
      <point x="294.01415321361554" y="-4.985846786384439"/>
      <point x="306" y="7" type="curve" smooth="yes"/>
      <point x="315.0" y="16.0"/>
      <point x="321" y="35"/>
      <point x="321" y="54" type="curve" smooth="yes"/>
      <point x="321" y="57"/>
      <point x="321" y="62"/>
    </contour>
    <contour>
      <point x="500" y="10" type="curve" smooth="yes"/>
      <point x="500.0" y="466" type="line" smooth="yes"/>
      <point x="500.0" y="526.0"/>
      <point x="477.0" y="531.0"/>
      <point x="456" y="531.0" type="curve"/>
      <point x="449" y="531.0"/>
      <point x="444" y="530.0"/>
      <point x="438" y="528" type="curve"/>
      <point x="447.0" y="502"/>
      <point x="450.0" y="486"/>
      <point x="450" y="442" type="curve"/>
      <point x="450" y="10" type="line" smooth="yes"/>
      <point x="450" y="-108"/>
      <point x="431" y="-148"/>
      <point x="369" y="-200" type="curve"/>
      <point x="425.0" y="-224.0"/>
      <point x="500.0" y="-120.0"/>
    </contour>
    <contour>
      <point x="285" y="-200" type="curve" smooth="yes"/>
      <point x="217" y="-200"/>
      <point x="182" y="-191"/>
      <point x="131" y="-159" type="curve"/>
      <point x="127" y="-159" type="line"/>
      <point x="126" y="-164"/>
      <point x="125" y="-173"/>
      <point x="125" y="-180" type="curve" smooth="yes"/>
      <point x="125" y="-194"/>
      <point x="128" y="-205"/>
      <point x="135" y="-212" type="curve" smooth="yes"/>
      <point x="156" y="-233"/>
      <point x="211" y="-250"/>
      <point x="275" y="-250" type="curve" smooth="yes"/>
      <point x="437.0" y="-250.0"/>
      <point x="500.0" y="-164.0"/>
      <point x="500" y="10" type="curve" smooth="yes"/>
      <point x="500.0" y="20.0"/>
      <point x="492.0" y="28.0"/>
      <point x="480" y="28" type="curve"/>
      <point x="461.0" y="-166.0"/>
      <point x="368.0" y="-200.0"/>
    </contour>
  </outline>
</glyph>
<glyph name="gravecomb.case" format="1">
  <outline>
    <contour>
      <point x="31.0" y="802.0" type="curve"/>
      <point x="-33.0" y="843.0"/>
      <point x="-77.0" y="886.0"/>
      <point x="-92.0" y="936.0" type="curve"/>
      <point x="-106.0" y="936.0"/>
      <point x="-114.0" y="935.0"/>
      <point x="-126.0" y="930.0" type="curve" smooth="yes"/>
      <point x="-139.0" y="925.0"/>
      <point x="-141.0" y="914.0"/>
      <point x="-137.0" y="905.0" type="curve" smooth="yes"/>
      <point x="-122.0" y="867.0"/>
      <point x="-83.0" y="827.0"/>
      <point x="-36.0" y="802.0" type="curve" smooth="yes"/>
      <point x="-22.0" y="794.0"/>
      <point x="-8.0" y="791.0"/>
      <point x="2.0" y="791.0" type="curve" smooth="yes"/>
      <point x="11.0" y="791.0"/>
      <point x="22.0" y="793.0"/>
    </contour>
    <contour>
      <point x="0" y="711" type="move" name="_top"/>
    </contour>
  </outline>
</glyph>
<glyph name="hungarumlautcomb.case" format="1">
  <outline>
    <component base="acutecomb.case" xOffset="-104"/>
    <component base="acutecomb.case" xOffset="126"/>
    <contour>
      <point x="0" y="711" type="move" name="_top"/>
    </contour>
  </outline>
</glyph>
<glyph name="i.ss02" format="1">
  <advance width="600"/>
  <outline>
    <contour>
      <point x="80" y="500" type="curve"/>
      <point x="80" y="461" type="line" smooth="yes"/>
      <point x="80" y="458"/>
      <point x="81" y="455"/>
      <point x="83" y="453" type="curve" smooth="yes"/>
      <point x="85" y="451"/>
      <point x="88" y="450"/>
      <point x="91" y="450" type="curve" smooth="yes"/>
      <point x="145" y="450.0"/>
      <point x="181" y="450.0"/>
      <point x="235" y="450" type="curve" smooth="yes"/>
      <point x="252.0" y="450.0"/>
      <point x="303" y="450.0"/>
      <point x="313" y="450" type="curve"/>
      <point x="313" y="489" type="line" smooth="yes"/>
      <point x="313" y="492"/>
      <point x="312" y="495"/>
      <point x="310" y="497" type="curve" smooth="yes"/>
      <point x="308" y="499"/>
      <point x="305" y="500"/>
      <point x="302" y="500" type="curve" smooth="yes"/>
      <point x="214" y="500.0"/>
      <point x="168" y="500.0"/>
    </contour>
    <contour>
      <point x="327" y="497" type="curve" smooth="yes"/>
      <point x="325" y="499"/>
      <point x="322" y="500"/>
      <point x="319" y="500" type="curve" smooth="yes"/>
      <point x="280" y="500" type="line"/>
      <point x="280" y="64" type="line" smooth="yes"/>
      <point x="280" y="40"/>
      <point x="284" y="26"/>
      <point x="295" y="15" type="curve"/>
      <point x="306.0" y="4.0"/>
      <point x="322" y="9.0"/>
      <point x="330" y="22" type="curve"/>
      <point x="330" y="45"/>
      <point x="330" y="70"/>
      <point x="330" y="102" type="curve" smooth="yes"/>
      <point x="330" y="489" type="line" smooth="yes"/>
      <point x="330" y="492"/>
      <point x="329" y="495"/>
    </contour>
    <contour>
      <point x="520" y="50" type="line"/>
      <point x="510" y="50" type="line"/>
      <point x="480" y="50.0"/>
      <point x="477" y="50.0"/>
      <point x="384" y="50" type="curve" smooth="yes"/>
      <point x="357.0" y="50.0"/>
      <point x="329.0" y="50.0"/>
      <point x="301" y="50" type="curve"/>
      <point x="291.0" y="42.0"/>
      <point x="282.0" y="28.0"/>
      <point x="295" y="15" type="curve" smooth="yes"/>
      <point x="306.0" y="4"/>
      <point x="321.0" y="0"/>
      <point x="344" y="0" type="curve" smooth="yes"/>
      <point x="509" y="0" type="line" smooth="yes"/>
      <point x="512" y="0"/>
      <point x="515.0" y="1.0"/>
      <point x="517" y="3" type="curve" smooth="yes"/>
      <point x="519" y="5"/>
      <point x="520" y="7"/>
      <point x="520.0" y="11" type="curve" smooth="yes"/>
    </contour>
    <contour>
      <point x="345" y="650" type="line"/>
      <point x="345" y="719" type="line" smooth="yes"/>
      <point x="345.0" y="722.0"/>
      <point x="344" y="725"/>
      <point x="342" y="727" type="curve" smooth="yes"/>
      <point x="340" y="729"/>
      <point x="337" y="730"/>
      <point x="334" y="730" type="curve" smooth="yes"/>
      <point x="265" y="730" type="line"/>
      <point x="265" y="661" type="line" smooth="yes"/>
      <point x="265" y="658"/>
      <point x="266" y="655"/>
      <point x="268" y="653" type="curve" smooth="yes"/>
      <point x="270" y="651"/>
      <point x="273" y="650"/>
      <point x="276" y="650" type="curve" smooth="yes"/>
    </contour>
  </outline>
</glyph>
<glyph name="macroncomb.case" format="1">
  <outline>
    <contour>
      <point x="-190" y="862" type="line"/>
      <point x="-190" y="859"/>
      <point x="-190" y="855"/>
      <point x="-190" y="852" type="curve" smooth="yes"/>
      <point x="-190.0" y="830.0"/>
      <point x="-185.33333333333334" y="812.0"/>
      <point x="-167" y="812" type="curve"/>
      <point x="190" y="812" type="line"/>
      <point x="190" y="815"/>
      <point x="190" y="819"/>
      <point x="190" y="822" type="curve" smooth="yes"/>
      <point x="190" y="844"/>
      <point x="185" y="862"/>
      <point x="167" y="862" type="curve"/>
    </contour>
    <contour>
      <point x="0" y="711" type="move" name="_top"/>
    </contour>
  </outline>
</glyph>
<glyph name="ogonekcomb.case" format="1">
  <outline>
    <contour>
      <point x="-148" y="-130" type="curve" smooth="yes"/>
      <point x="-148" y="-205.0"/>
      <point x="-99" y="-250"/>
      <point x="-20" y="-250" type="curve" smooth="yes"/>
      <point x="38.0" y="-250.0"/>
      <point x="76" y="-228"/>
      <point x="76" y="-192" type="curve" smooth="yes"/>
      <point x="76" y="-183"/>
      <point x="76" y="-177"/>
      <point x="72" y="-170" type="curve"/>
      <point x="68" y="-170" type="line"/>
      <point x="42" y="-191"/>
      <point x="14" y="-200"/>
      <point x="-17" y="-200" type="curve" smooth="yes"/>
      <point x="-68.0" y="-200.0"/>
      <point x="-95" y="-174"/>
      <point x="-95" y="-126" type="curve" smooth="yes"/>
      <point x="-95.0" y="-72.0"/>
      <point x="-62" y="-27.0"/>
      <point x="27" y="0" type="curve"/>
      <point x="17" y="11"/>
      <point x="10" y="17"/>
      <point x="2" y="17" type="curve" smooth="yes"/>
      <point x="-66" y="17"/>
      <point x="-148" y="-41"/>
    </contour>
    <contour>
      <point x="27" y="-1" type="move" name="_ogonek"/>
    </contour>
  </outline>
</glyph>
<glyph name="ringcomb.case" format="1">
  <outline>
    <contour>
      <point x="17.0" y="701" type="curve"/>
      <point x="-51.0" y="701.0"/>
      <point x="-91" y="729.0"/>
      <point x="-91" y="771" type="curve" smooth="yes"/>
      <point x="-91" y="777" type="line" smooth="yes"/>
      <point x="-91" y="816.0"/>
      <point x="-56.395348837209305" y="839.0"/>
      <point x="5.0" y="839" type="curve" smooth="yes"/>
      <point x="35.85714285714286" y="839.0"/>
      <point x="55" y="835"/>
      <point x="85" y="822" type="curve"/>
      <point x="99.0" y="851.0"/>
      <point x="51.0" y="882.0"/>
      <point x="3.0" y="882.0" type="curve"/>
      <point x="-81.0" y="882.0"/>
      <point x="-139" y="838.0"/>
      <point x="-139" y="776" type="curve" smooth="yes"/>
      <point x="-139" y="770.0" type="line" smooth="yes"/>
      <point x="-139" y="710.0"/>
      <point x="-83.0" y="668.0"/>
      <point x="-3.0" y="668" type="curve"/>
      <point x="7.0" y="668.0"/>
      <point x="17.0" y="685.0"/>
    </contour>
    <contour>
      <point x="-17.0" y="849" type="curve"/>
      <point x="51.0" y="849.0"/>
      <point x="91" y="821.0"/>
      <point x="91" y="779" type="curve" smooth="yes"/>
      <point x="91" y="773" type="line" smooth="yes"/>
      <point x="91" y="734.0"/>
      <point x="58.627906976744185" y="711.0"/>
      <point x="-5.0" y="711" type="curve" smooth="yes"/>
      <point x="-35.85714285714286" y="711.0"/>
      <point x="-55" y="715"/>
      <point x="-85" y="728" type="curve"/>
      <point x="-99.0" y="699.0"/>
      <point x="-51.0" y="668.0"/>
      <point x="-3.0" y="668" type="curve"/>
      <point x="81.0" y="668.0"/>
      <point x="139" y="712.0"/>
      <point x="139" y="774.0" type="curve" smooth="yes"/>
      <point x="139" y="780" type="line" smooth="yes"/>
      <point x="139" y="840.0"/>
      <point x="83.0" y="882.0"/>
      <point x="3.0" y="882.0" type="curve"/>
      <point x="-7.0" y="882.0"/>
      <point x="-17.0" y="865.0"/>
    </contour>
    <contour>
      <point x="0" y="873" type="move" name="top"/>
    </contour>
    <contour>
      <point x="0" y="700" type="move" name="_ring"/>
    </contour>
  </outline>
</glyph>
<glyph name="six.replaced_with_nokinks" format="1">
  <advance width="600"/>
  <outline>
    <contour>
      <point x="142" y="40" type="curve" smooth="yes"/>
      <point x="167" y="15"/>
      <point x="190" y="13"/>
      <point x="214" y="29" type="curve"/>
      <point x="151" y="83"/>
      <point x="125" y="154"/>
      <point x="125" y="298" type="curve" smooth="yes"/>
      <point x="125" y="407" type="line" smooth="yes"/>
      <point x="125" y="518"/>
      <point x="143" y="586"/>
      <point x="220" y="656" type="curve"/>
      <point x="185" y="669"/>
      <point x="175" y="672"/>
      <point x="154" y="651" type="curve" smooth="yes"/>
      <point x="103" y="600"/>
      <point x="75" y="519"/>
      <point x="75" y="406" type="curve" smooth="yes"/>
      <point x="75" y="297" type="line" smooth="yes"/>
      <point x="75" y="165"/>
      <point x="94" y="88"/>
    </contour>
    <contour>
      <point x="310" y="-20" type="curve"/>
      <point x="440" y="-20.0"/>
      <point x="528" y="62"/>
      <point x="528" y="181" type="curve" smooth="yes"/>
      <point x="528" y="243" type="line" smooth="yes"/>
      <point x="528.0" y="296.0"/>
      <point x="510" y="335"/>
      <point x="479" y="366" type="curve" smooth="yes"/>
      <point x="469" y="376"/>
      <point x="447" y="373"/>
      <point x="422" y="364" type="curve"/>
      <point x="461" y="323"/>
      <point x="478.0" y="291.0"/>
      <point x="478" y="243" type="curve" smooth="yes"/>
      <point x="478" y="181" type="line" smooth="yes"/>
      <point x="478" y="85"/>
      <point x="410.0" y="24.0"/>
      <point x="300" y="24" type="curve" smooth="yes"/>
      <point x="240.0" y="24.0"/>
      <point x="188.0" y="43"/>
      <point x="135" y="116" type="curve"/>
      <point x="119" y="87"/>
      <point x="121" y="61"/>
      <point x="142" y="40" type="curve" smooth="yes"/>
      <point x="183" y="-1"/>
      <point x="245" y="-20"/>
    </contour>
    <contour>
      <point x="309.0" y="420.0" type="curve" smooth="yes"/>
      <point x="230.0" y="420.0"/>
      <point x="159.0" y="391.0"/>
      <point x="125.0" y="357.0" type="curve" smooth="yes"/>
      <point x="119" y="351"/>
      <point x="114.0" y="330"/>
      <point x="114.0" y="299.0" type="curve"/>
      <point x="174.0" y="351.0"/>
      <point x="233.0" y="373.0"/>
      <point x="306.0" y="373.0" type="curve" smooth="yes"/>
      <point x="391.0" y="373.0"/>
      <point x="436.0" y="354.0"/>
      <point x="479.0" y="300.0" type="curve"/>
      <point x="490" y="318"/>
      <point x="491" y="354"/>
      <point x="479.0" y="366.0" type="curve" smooth="yes"/>
      <point x="439.0" y="406.0"/>
      <point x="386.0" y="420.0"/>
    </contour>
    <contour>
      <point x="331" y="720" type="curve" smooth="yes"/>
      <point x="252" y="720.0"/>
      <point x="196" y="693"/>
      <point x="154" y="651" type="curve" smooth="yes"/>
      <point x="130" y="627"/>
      <point x="140" y="592"/>
      <point x="147" y="583" type="curve"/>
      <point x="178.0" y="619.0"/>
      <point x="226.0" y="673.0"/>
      <point x="331" y="673" type="curve" smooth="yes"/>
      <point x="400.0" y="673.0"/>
      <point x="440.0" y="658.0"/>
      <point x="491" y="615" type="curve"/>
      <point x="502" y="615" type="line"/>
      <point x="502.0" y="623"/>
      <point x="502.0" y="637"/>
      <point x="502" y="659" type="curve" smooth="yes"/>
      <point x="502" y="663"/>
      <point x="501" y="665"/>
      <point x="499" y="667" type="curve" smooth="yes"/>
      <point x="469" y="697"/>
      <point x="409" y="720.0"/>
    </contour>
  </outline>
</glyph>
